<?xml version="1.0" encoding="utf-8" ?>
<svg baseProfile="full" height="200mm" version="1.1" viewBox="0,0,200,200" width="200mm" xmlns="http://www.w3.org/2000/svg" xmlns:ev="http://www.w3.org/2001/xml-events" xmlns:xlink="http://www.w3.org/1999/xlink"><defs /><rect fill="#1a1a1a" height="200" width="200" x="0" y="0" /><text alignment-baseline="middle" fill="#e1ed5e" style="dominant-baseline: central; font-size:9.0px; font-family:Arial;" text-anchor="middle" x="100.0" y="100.0">2021</text><line stroke="#e1ed5e" stroke-width="0.3" x1="100.0" x2="100.0" y1="15.0" y2="10.0" /><path d="M 100.0 14.0 a86.0,86.0 0 0,1 42.46469731375804,11.215312516191453" fill="none" id="id49" stroke="none" /><text fill="#e1ed5e" style="font-size:6.75px; font-family:Arial;" text-anchor="middle"><textPath startOffset="22.20632615414155" xlink:href="#id49">January</textPath></text><path d="M 106.0581310904928 79.89281104454417 l 5.898148781620346 -19.576201021061912 a41.44543483194121,41.44543483194121 0 0,0 0.6813128732548,0.21168722618139516 l -6.234247027585864 19.471773659997996" fill="red" stroke="none" /><path d="M 108.09893153111575 80.62456947434976 l 14.870391896136361 -35.57509332753793 a59.557954048519115,59.557954048519115 0 0,0 0.9424797849095692,0.4035206578854149 l -15.480555438836246 35.31385314168972" fill="red" stroke="none" /><line stroke="#e1ed5e" stroke-width="0.3" x1="143.23703022742887" x2="145.7803849466894" y1="26.81831364943548" y2="22.513508569990506" /><path d="M 143.74570117128098 25.957352633546492 a86.0,86.0 0 0,1 28.547481713284135,27.462654790039103" fill="none" id="id50" stroke="none" /><text fill="#e1ed5e" style="font-size:6.75px; font-family:Arial;" text-anchor="middle"><textPath startOffset="19.985693538727396" xlink:href="#id50">February</textPath></text><path d="M 112.19680574252982 82.90503203632743 l 12.008581522721848 -16.831154054069618 a41.675922639139486,41.675922639139486 0 0,0 0.580396131956834,0.4216824729564487 l -12.29652297103247 16.621952346296496" fill="red" stroke="none" /><path d="M 113.6212207817346 84.01681056812373 l 40.86366234520383 -47.94956829562881 a84.0,84.0 0 0,0 1.0924248054129433,0.9473400263213057 l -41.68298094926353 47.23906327588783" fill="red" stroke="none" /><line stroke="#e1ed5e" stroke-width="0.3" x1="172.23445277983987" x2="176.4835382374775" y1="55.19839476539836" y2="52.563006222186495" /><path d="M 173.08426987136738 54.67131705675599 a86.0,86.0 0 0,1 12.851231095245387,41.99856678651699" fill="none" id="id51" stroke="none" /><text fill="#e1ed5e" style="font-size:6.75px; font-family:Arial;" text-anchor="middle"><textPath startOffset="22.20632615414155" xlink:href="#id51">March</textPath></text><line stroke="#e1ed5e" stroke-width="0.3" x1="184.98032266829074" x2="189.97916517819016" y1="98.17113171792111" y2="98.06355123074" /><path d="M 185.9800911702706 98.14961562048488 a86.0,86.0 0 0,1 -9.607161424134198,41.387399972396054" fill="none" id="id52" stroke="none" /><text fill="#e1ed5e" style="font-size:6.75px; font-family:Arial;" text-anchor="middle"><textPath startOffset="21.466115282336823" xlink:href="#id52">April</textPath></text><path d="M 120.76222939487914 103.15116336523771 l 3.5903184253336886 0.544916428591232 a24.631435020682485,24.631435020682485 0 0,0 -0.06723003061664007,0.4186414648258934 l -3.58040664035576 -0.6066371231103302" fill="red" stroke="none" /><path d="M 120.02730092923936 106.31721596034902 l 13.188212423313644 4.159960760733144 a34.82874616345545,34.82874616345545 0 0,0 -0.18526861113553011,0.5701981544471489 l -13.114651561161866 -4.386357815158088" fill="red" stroke="none" /><path d="M 118.81262510543309 109.33194174019688 l 4.276015894591799 2.1211038323919165 a25.773195302791347,25.773195302791347 0 0,0 -0.20056618382097355,0.3957361083975701 l -4.238871040984557 -2.1943941524921806" fill="red" stroke="none" /><line stroke="#e1ed5e" stroke-width="0.3" x1="174.80103733775053" x2="179.2010983576182" y1="140.37084112569926" y2="142.7455964860345" /><path d="M 175.68104954172406 140.8457921977663 a86.0,86.0 0 0,1 -30.038265399797805,32.042727171017184" fill="none" id="id53" stroke="none" /><text fill="#e1ed5e" style="font-size:6.75px; font-family:Arial;" text-anchor="middle"><textPath startOffset="22.206326154141568" xlink:href="#id53">May</textPath></text><path d="M 113.20401910651253 116.32954008644616 l 4.520785429170018 5.590899732297617 a28.18996945147902,28.18996945147902 0 0,0 -0.37995045875085237,0.30185562356519774 l -4.423877477701814 -5.667889269867941" fill="red" stroke="none" /><path d="M 112.92097659922987 116.55440617244103 l 4.819006687606498 6.174130371778745 a28.83215878943455,28.83215878943455 0 0,0 -0.39386276439059903,0.30199717256484576 l -4.712015194722405 -6.256166886170962" fill="red" stroke="none" /><line stroke="#e1ed5e" stroke-width="0.3" x1="143.8653032363475" x2="146.44561519142675" y1="172.8068346515853" y2="177.08958963109032" /><path d="M 144.38136562736335 173.6633856474863 a86.0,86.0 0 0,1 -40.68145358897372,12.25698825130547" fill="none" id="id54" stroke="none" /><text fill="#e1ed5e" style="font-size:6.75px; font-family:Arial;" text-anchor="middle"><textPath startOffset="21.466115282336833" xlink:href="#id54">June</textPath></text><path d="M 107.59598834532513 119.57807347666477 l 6.940446911316719 17.888466044616315 a40.187678878858605,40.187678878858605 0 0,0 -0.6470786184507347,0.24466976518166014 l -6.6314980721057095 -18.005284059904607" fill="red" stroke="none" /><path d="M 106.57524785965236 119.94407469862006 l 6.780661373699539 20.567135996947982 a42.65604884972636,42.65604884972636 0 0,0 -0.6993127200818539,0.2238978494023731 l -6.425627308526745 -20.680806693010062" fill="red" stroke="none" /><path d="M 105.88484417918355 120.15858648285463 l 7.248316281201194 24.82917238939524 a46.86553479931612,46.86553479931612 0 0,0 -0.7763361355614785,0.2194003465217331 l -6.81984897753511 -24.950261529255492" fill="red" stroke="none" /><path d="M 102.34483914955558 120.86867818915974 l 3.5586309216883047 31.671222954794665 a52.870522704987266,52.870522704987266 0 0,0 -0.9052626935779429,0.09383417958519237 l -3.0129356315047593 -31.727786502835617" fill="red" stroke="none" /><line stroke="#e1ed5e" stroke-width="0.3" x1="102.19456741930631" x2="102.32365962044197" y1="184.97166512339345" y2="189.96999836594603" /><path d="M 102.22038585953345 185.97133177190398 a86.0,86.0 0 0,1 -42.740103519485714,-10.115201625700543" fill="none" id="id55" stroke="none" /><text fill="#e1ed5e" style="font-size:6.75px; font-family:Arial;" text-anchor="middle"><textPath startOffset="22.20632615414155" xlink:href="#id55">July</textPath></text><path d="M 99.45781275523022 120.99299961872073 l -0.818333420054628 31.685129705490922 a52.6956955128005,52.6956955128005 0 0,0 -0.9065658258630788,-0.031223960063950562 l 1.3636195975923497 -31.66634894700088" fill="red" stroke="none" /><path d="M 96.93821686468263 120.77559828337769 l -6.559179023956793 44.50702824070486 a65.98775824918613,65.98775824918613 0 0,0 -1.1223076517847863,-0.17528137378617079 l 7.324322539350097 -44.387528559571585" fill="red" stroke="none" /><path d="M 94.81253420990036 120.34920634021253 l -11.39216994760534 44.688799176087954 a67.11800416232083,67.11800416232083 0 0,0 -1.1170659006737798,-0.2950272572219251 l 12.159726291090609 -44.486080569562446" fill="red" stroke="none" /><path d="M 92.40401165467489 119.57807347666478 l -11.556640618674034 29.786348910745332 a52.94968738222404,52.94968738222404 0 0,0 -0.846889715326734,-0.33699489554031065 l 12.067651410042627 -29.583007170798954" fill="red" stroke="none" /><line stroke="#e1ed5e" stroke-width="0.3" x1="58.666819895761336" x2="56.23545636021788" y1="174.27360380694188" y2="178.64263932499728" /><path d="M 58.180547188652646 175.14741091055294 a86.0,86.0 0 0,1 -31.652253787137756,-30.449443065178592" fill="none" id="id56" stroke="none" /><text fill="#e1ed5e" style="font-size:6.75px; font-family:Arial;" text-anchor="middle"><textPath startOffset="22.20632615414155" xlink:href="#id56">August</textPath></text><path d="M 87.95078237400918 117.19931262002967 l -18.363847415270328 26.212951114806184 a53.00546356543754,53.00546356543754 0 0,0 -0.7427647334290426,-0.529942915674799 l 18.812339476548257 -25.892963937287167" fill="red" stroke="none" /><path d="M 85.70375840098266 115.38237550388516 l -8.753083999851684 9.418085443661116 a33.85755859144966,33.85755859144966 0 0,0 -0.42348416080891577,-0.4004307065934003 l 8.913903995051413 -9.26602010032179" fill="red" stroke="none" /><path d="M 82.6465618267979 111.8261652097733 l -26.459579893742955 18.031894318661116 a53.01965928726803,53.01965928726803 0 0,0 -0.5074660413772382,-0.7585928779623065 l 26.766049040530923 -17.573764526492987" fill="red" stroke="none" /><line stroke="#e1ed5e" stroke-width="0.3" x1="26.63291911575756" x2="22.317208475507996" y1="142.92168965132927" y2="145.44649492493687" /><path d="M 25.769776987707644 143.4266507060508 a86.0,86.0 0 0,1 -11.730757126820373,-40.83630448921669" fill="none" id="id57" stroke="none" /><text fill="#e1ed5e" style="font-size:6.75px; font-family:Arial;" text-anchor="middle"><textPath startOffset="21.46611528233685" xlink:href="#id57">September</textPath></text><path d="M 80.20201598880116 107.00284435728193 l -30.005055911732658 10.613239022849495 a52.82678467615506,52.82678467615506 0 0,0 -0.2958530595096947,-0.8598874766825637 l 30.183299802185584 -10.095178843077633" fill="red" stroke="none" /><line stroke="#e1ed5e" stroke-width="0.3" x1="15.007084014347285" x2="10.007500721073583" y1="101.09737516637583" y2="101.16192664675087" /><path d="M 14.007167355692545 101.11028546245083 a86.0,86.0 0 0,1 10.666146001902534,-42.60595125391555" fill="none" id="id58" stroke="none" /><text fill="#e1ed5e" style="font-size:6.75px; font-family:Arial;" text-anchor="middle"><textPath startOffset="22.20632615414155" xlink:href="#id58">October</textPath></text><path d="M 79.71946130924805 94.55025226153421 l -31.384287948146042 -8.433526094982952 a53.49765979892865,53.49765979892865 0 0,0 0.24663243867983134,-0.8872681048336045 l 31.234468738899853 8.972505503235498" fill="red" stroke="none" /><line stroke="#e1ed5e" stroke-width="0.3" x1="26.266209847984243" x2="21.928928074336255" y1="57.711370442889674" y2="55.22380399835377" /><path d="M 25.398753493254645 57.213857153982495 a86.0,86.0 0 0,1 29.58750427330803,-30.492523968695096" fill="none" id="id59" stroke="none" /><text fill="#e1ed5e" style="font-size:6.75px; font-family:Arial;" text-anchor="middle"><textPath startOffset="21.46611528233685" xlink:href="#id59">November</textPath></text><path d="M 81.96595687620814 89.24020034530311 l -6.910651520460313 -4.123158924106254 a29.047207214349427,29.047207214349427 0 0,0 0.2598814923563245,-0.42717684219633645 l 6.838654229817768 4.241503539509664" fill="red" stroke="none" /><path d="M 82.15384107792192 88.93136811851018 l -5.587358914169558 -3.4654190451141678 a27.574778231544393,27.574778231544393 0 0,0 0.253651723522473,-0.40121611201939206 l 5.526879594401122 3.5610828048477754" fill="red" stroke="none" /><path d="M 82.34701348167596 88.62581576622439 l -5.428692363484358 -3.4978187416994633 a27.457974661388615,27.457974661388615 0 0,0 0.2594168837655463,-0.3951097115443131 l 5.367678844360891 3.5907465172214437" fill="red" stroke="none" /><path d="M 82.7489923806493 88.02491185347247 l -5.309776358656701 -3.6858739695841107 a27.463698004904572,27.463698004904572 0 0,0 0.2729203422448091,-0.3860264692351726 l 5.245543396608014 3.7767269391510694" fill="red" stroke="none" /><path d="M 82.95767976084542 87.72973835380427 l -7.661582282311989 -5.516245318042979 a30.440805340513492,30.440805340513492 0 0,0 0.30982562887916143,-0.4226018096021316 l 7.565494040919194 5.647309571316614" fill="red" stroke="none" /><path d="M 83.17141714833178 87.43820079747577 l -7.9643082809567876 -5.945006914379754 a30.938476422779296,30.938476422779296 0 0,0 0.32223757935576086,-0.4240268821677081 l 7.860794761376918 6.081218572428487" fill="red" stroke="none" /><path d="M 84.07557802195018 86.31012108654704 l -7.26347963443621 -6.244255321971866 a30.57856257096249,30.57856257096249 0 0,0 0.34656889009443276,-0.39618815186827766 l 7.154918880763933 6.368359030043086" fill="red" stroke="none" /><path d="M 84.5562425177563 85.77008943001954 l -4.7373328462783775 -4.364988431104176 a27.441695933533442,27.441695933533442 0 0,0 0.3230706654914218,-0.3446292604955245 l 4.661494858816497 4.44588710847775" fill="red" stroke="none" /><path d="M 84.80347519578584 85.50635884689758 l -5.196851440527613 -4.956481884865095 a28.181502459089586,28.181502459089586 0 0,0 0.3378233938805442,-0.34815670290857503 l 5.110763782943955 5.045202783323794" fill="red" stroke="none" /><path d="M 85.05521093208273 85.24692304244772 l -4.666964919366149 -4.607096982145692 a27.557888696942808,27.557888696942808 0 0,0 0.33615926224431114,-0.3347156875411723 l 4.586969856954522 4.686748520336977" fill="red" stroke="none" /><path d="M 85.31137513191541 84.99185889309783 l -4.705328647029853 -4.807681925515865 a27.727103624405657,27.727103624405657 0 0,0 0.3439702428691555,-0.3308991011128639 l 4.62187516054827 4.887964113391038" fill="red" stroke="none" /><path d="M 86.65592168130627 83.78471172551755 l -5.992821110143151 -7.282280541042849 a30.43109297677786,30.43109297677786 0 0,0 0.40733699113047406,-0.3293715184385601 l 5.866580720448176 7.384358156745545" fill="red" stroke="none" /><path d="M 87.22198572758235 83.33499621200491 l -6.346090805654323 -8.276530692525226 a31.429469249099995,31.429469249099995 0 0,0 0.4321609586195253,-0.32549467439595914 l 6.202683693276407 8.38454195642704" fill="red" stroke="none" /><line stroke="#e1ed5e" stroke-width="0.3" x1="56.76296977257108" x2="54.21961505331056" y1="26.818313649435495" y2="22.513508569990535" /><path d="M 56.25429882871898 25.957352633546506 a86.0,86.0 0 0,1 42.26535254187918,-11.944610805530505" fill="none" id="id60" stroke="none" /><text fill="#e1ed5e" style="font-size:6.75px; font-family:Arial;" text-anchor="middle"><textPath startOffset="22.20632615414155" xlink:href="#id60">December</textPath></text><path d="M 89.63071344664047 81.73862282372117 l -4.717282613244326 -8.30761852363384 a30.553495736506157,30.553495736506157 0 0,0 0.45957682370486924,-0.2557540048184919 l 4.573581700467411 8.387587926012516" fill="red" stroke="none" /><path d="M 91.23893434514133 80.91482961587045 l -1.4878051688995557 -3.241045811714638 a24.56622239551002,24.56622239551002 0 0,0 0.3858275917981523,-0.17310959383547705 l 1.431795458634629 3.266175736066644" fill="red" stroke="none" /><path d="M 92.91201910852362 80.23233633223022 l -10.738901201439568 -29.94971210584754 a52.81680773172304,52.81680773172304 0 0,0 0.8584441412745946,-0.29949430489814344 l 10.221775056101688 30.130127263917892" fill="red" stroke="none" /><path d="M 94.98787191387505 79.60689891045804 l -9.515204099484253 -38.714996056381516 a60.86715476053537,60.86715476053537 0 0,0 1.0196011088924752,-0.24130664048422928 l 8.847379303629245 38.87304860900662" fill="red" stroke="none" /><path d="M 99.27714615592234 79.0124445844662 l -0.22206700028452173 -6.447559921853345 a27.451383006650968,27.451383006650968 0 0,0 0.47239041169845614,-0.012200450646703324 l 0.11104995339118656 6.4504271646424085" fill="red" stroke="none" /></svg>