<?xml version="1.0" encoding="utf-8" ?>
<svg baseProfile="full" height="200mm" version="1.1" viewBox="0,0,200,200" width="200mm" xmlns="http://www.w3.org/2000/svg" xmlns:ev="http://www.w3.org/2001/xml-events" xmlns:xlink="http://www.w3.org/1999/xlink"><defs /><rect fill="#1a1a1a" height="200" width="200" x="0" y="0" /><text alignment-baseline="middle" fill="#e1ed5e" style="dominant-baseline: central; font-size:9.0px; font-family:Arial;" text-anchor="middle" x="100.0" y="100.0">2022</text><line stroke="#e1ed5e" stroke-width="0.3" x1="100.0" x2="100.0" y1="15.0" y2="10.0" /><path d="M 100.0 14.0 a86.0,86.0 0 0,1 42.46469731375804,11.215312516191453" fill="none" id="id61" stroke="none" /><text fill="#e1ed5e" style="font-size:6.75px; font-family:Arial;" text-anchor="middle"><textPath startOffset="22.20632615414155" xlink:href="#id61">January</textPath></text><path d="M 100.0 79.0 l 0.0 -37.06136673227553 a58.06136673227553,58.06136673227553 0 0,0 0.9994309844571901,0.008602418014845722 l -0.6379505051846618 37.05587569086924" fill="#47ff2c" stroke="none" /><path d="M 102.88285421437855 79.19881850522331 l 4.705574595078135 -33.952986835489455 a55.27751080987015,55.27751080987015 0 0,0 0.9413786928714221,0.13873474864437244 l -5.289322268378212 33.86695760268412" fill="#64ff29" stroke="none" /><path d="M 105.01212808612495 79.60689891045804 l 8.687018670428946 -35.345315775790695 a57.397192758106215,57.397192758106215 0 0,0 0.9574155446474695,0.24406654007699244 l -9.29414310376144 35.19054623954484" fill="#4eff2c" stroke="none" /><path d="M 107.4271985657038 80.35727306442388 l 3.2649378429490965 -8.634787658272444 a30.2314341801139,30.2314341801139 0 0,0 0.48516677451918444,0.1882371709953618 l -3.4130877824679478 8.577307783386535" fill="#ff6a09" stroke="none" /><line stroke="#e1ed5e" stroke-width="0.3" x1="143.23703022742887" x2="145.7803849466894" y1="26.81831364943548" y2="22.513508569990506" /><path d="M 143.74570117128098 25.957352633546492 a86.0,86.0 0 0,1 28.547481713284135,27.462654790039103" fill="none" id="id62" stroke="none" /><text fill="#e1ed5e" style="font-size:6.75px; font-family:Arial;" text-anchor="middle"><textPath startOffset="19.985693538727396" xlink:href="#id62">February</textPath></text><path d="M 113.89432698308785 84.25364557470407 l 1.8228060063458045 -2.065774719381225 a23.75500397967134,23.75500397967134 0 0,0 0.3042778600069105,0.2731836670371387 l -1.858094853948705 2.034092043574789" fill="#ff0d01" stroke="none" /><line stroke="#e1ed5e" stroke-width="0.3" x1="172.23445277983987" x2="176.4835382374775" y1="55.19839476539836" y2="52.563006222186495" /><path d="M 173.08426987136738 54.67131705675599 a86.0,86.0 0 0,1 12.851231095245387,41.99856678651699" fill="none" id="id63" stroke="none" /><text fill="#e1ed5e" style="font-size:6.75px; font-family:Arial;" text-anchor="middle"><textPath startOffset="22.20632615414155" xlink:href="#id63">March</textPath></text><path d="M 118.03404312379186 89.2402003453031 l 3.2359384733039414 -1.9306846184559456 a24.76813493640435,24.76813493640435 0 0,0 0.21529444828829092,0.3680080008454715 l -3.2686925960625595 1.874697205256579" fill="#ff1c02" stroke="none" /><path d="M 118.21658344932153 89.55222093294921 l 3.2670210367135 -1.8737385138079314 a24.766207969889038,24.766207969889038 0 0,0 0.20891164266801376,0.3716305013188746 l -3.298790320673947 1.8172245025542628" fill="#ff1c02" stroke="none" /><path d="M 119.196687751892 91.48605970444005 l 5.110780603872578 -2.266686914297928 a26.590880784667977,26.590880784667977 0 0,0 0.18196936201059694,0.4200103763080969 l -5.149040675725855 2.1783773934032284" fill="#ff3605" stroke="none" /><path d="M 119.34039704204932 91.81776055985345 l 3.471101262511761 -1.4685004443867802 a24.768957087812876,24.768957087812876 0 0,0 0.16274185316974216,0.39409230601853235 l -3.495864802567701 1.4085335679149447" fill="#ff1c02" stroke="none" /><path d="M 119.61058180528143 92.48833698450437 l 5.228123090100923 -2.0025871361854923 a26.598537870128418,26.598537870128418 0 0,0 0.16009205425476122,0.4289671126410272 l -5.26181973285731 1.9122968865151317" fill="#ff3705" stroke="none" /><path d="M 119.7369772167798 92.82701384747503 l 6.972768384973766 -2.534104919960029 a28.418974773906115,28.418974773906115 0 0,0 0.16313427883514864,0.46120257416520805 l -7.015355744618724 2.413704719368207" fill="#ff5007" stroke="none" /><path d="M 119.85752413597 93.16781622104841 l 7.309145301732767 -2.5147860139342315 a28.72966711687647,28.72966711687647 0 0,0 0.15686768479320212,0.4690144110358852 l -7.351350280297739 2.3885984999760326" fill="#ff5507" stroke="none" /><path d="M 119.97218684219823 93.5106431181261 l 7.100728426576497 -2.3071665233955985 a28.466147705120015,28.466147705120015 0 0,0 0.14740654577028875,0.4673190325629093 l -7.139390456114992 2.18459732440627" fill="#ff5107" stroke="none" /><path d="M 120.08093135843002 93.85539295169968 l 7.27303975345935 -2.22549295816968 a28.60591389395534,28.60591389395534 0 0,0 0.14002472647757286,0.4720937676620982 l -7.310270377048624 2.0999698037610517" fill="#ff5307" stroke="none" /><path d="M 120.18372546131832 94.20196356495316 l 7.094830481252779 -2.0380819046325716 a28.381761131850872,28.381761131850872 0 0,0 0.13084428343755033,0.4707165043469997 l -7.128861535256693 1.9156540968666198" fill="#ff5007" stroke="none" /><path d="M 120.28053869075195 94.5502522615342 l 7.378496842986685 -1.9827356214004386 a28.64025236535644,28.64025236535644 0 0,0 0.12383999861593355,0.4772060321819624 l -7.411533173472921 1.8554331636696257" fill="#ff5407" stroke="none" /><path d="M 120.37134235888165 94.90015583598534 l 5.769773320834117 -1.4444283680262424 a26.947827963565196,26.947827963565196 0 0,0 0.10877580550117173,0.45094593909992575 l -5.793781926596108 1.3448971972669106" fill="#ff3c05" stroke="none" /><path d="M 120.53481517161879 95.60439243477599 l 5.882213818835047 -1.2591252147266505 a27.015466375673164,27.015466375673164 0 0,0 0.09342296139933866,0.4555635382726034 l -5.903016076149383 1.1576860202906354" fill="#ff3d05" stroke="none" /><path d="M 120.6074358757038 95.95851677861258 l 5.494177337113746 -1.0775055012764383 a26.598839408032283,26.598839408032283 0 0,0 0.08424774038396068,0.45005479789174185 l -5.511910801407566 0.9827726259221335" fill="#ff3705" stroke="none" /><path d="M 120.73433829027371 96.67025291283417 l 5.566483382283419 -0.8939268554622648 a26.6378047561222,26.6378047561222 0 0,0 0.068806853320677,0.4533511935125948 l -5.581046129043396 0.7979765495575879" fill="#ff3705" stroke="none" /><line stroke="#e1ed5e" stroke-width="0.3" x1="184.98032266829074" x2="189.97916517819016" y1="98.17113171792111" y2="98.06355123074" /><path d="M 185.9800911702706 98.14961562048488 a86.0,86.0 0 0,1 -9.607161424134198,41.387399972396054" fill="none" id="id64" stroke="none" /><text fill="#e1ed5e" style="font-size:6.75px; font-family:Arial;" text-anchor="middle"><textPath startOffset="21.466115282336823" xlink:href="#id64">April</textPath></text><path d="M 120.9764740272857 100.99374915477107 l 26.41213622568332 1.2512607226471653 a47.44175851565271,47.44175851565271 0 0,0 -0.04566528856733203,0.8153844035754213 l -26.38668458622846 -1.7057168425580098" fill="#baff1f" stroke="none" /><path d="M 119.12269723197855 108.67885076344098 l 20.760947903886418 9.422372083792103 a43.79908010322589,43.79908010322589 0 0,0 -0.31749198813221335,0.6838494970235626 l -20.595681298914375 -9.778341648094496" fill="#e5ff1a" stroke="none" /><path d="M 118.97047184881838 109.00673069616215 l 1.6740919166087274 0.7948191891945975 a22.853192188837046,22.853192188837046 0 0,0 -0.1717762839507608,0.3539100233932337 l -1.6601623760432525 -0.8235181685531067" fill="#ff0000" stroke="none" /><path d="M 118.64920377521936 109.65438752849418 l 17.21741239415984 8.913172567291697 a40.3877263949358,40.3877263949358 0 0,0 -0.32492405109160405,0.6146338538395663 l -17.061435834843344 -9.208221436217398" fill="#ffef16" stroke="none" /><line stroke="#e1ed5e" stroke-width="0.3" x1="174.80103733775053" x2="179.2010983576182" y1="140.37084112569926" y2="142.7455964860345" /><path d="M 175.68104954172406 140.8457921977663 a86.0,86.0 0 0,1 -30.038265399797805,32.042727171017184" fill="none" id="id65" stroke="none" /><text fill="#e1ed5e" style="font-size:6.75px; font-family:Arial;" text-anchor="middle"><textPath startOffset="22.206326154141568" xlink:href="#id65">May</textPath></text><path d="M 116.71984013943494 112.70617746262583 l 2.9645710801383416 2.2529142581909367 a24.723480138788528,24.723480138788528 0 0,0 -0.2604126314925955,0.3366184301801702 l -2.9253516314276777 -2.3036106824843596" fill="#ff1b02" stroke="none" /><path d="M 115.80600337817218 113.82643327865902 l 26.725959876942582 23.378756299455947 a56.508353629157405,56.508353629157405 0 0,0 -0.6467277483671519,0.7266054812042833 l -26.31957327892709 -23.835335950401095" fill="#57ff2a" stroke="none" /><path d="M 115.07121518719521 114.62390073753431 l 8.110829100797016 7.870099271751842 a32.30150482234842,32.30150482234842 0 0,0 -0.3906319035452004,0.3957080559180254 l -7.9741565721962795 -8.008547821650533" fill="#ff860c" stroke="none" /><path d="M 114.55890576462653 115.13401014063108 l 10.37182828784679 10.781535166367922 a35.960492056620566,35.960492056620566 0 0,0 -0.4497872686165824,0.4253019367827606 l -10.1847051848394 -10.958471739896604" fill="#ffb711" stroke="none" /><path d="M 112.04921762599082 117.19931262002967 l 3.1936213926014134 4.558643924140213 a26.56600862615051,26.56600862615051 0 0,0 -0.37678584630228684,0.25915674080349016 l -3.114678661676243 -4.612941454308798" fill="#ff3605" stroke="none" /><path d="M 111.1453310114006 117.79835938074945 l 6.4987708657325465 10.378108939351863 a33.24496500290422,33.24496500290422 0 0,0 -0.4876257484960455,0.2995395618303057 l -6.3191659173041925 -10.488436968010548" fill="#ff930d" stroke="none" /><line stroke="#e1ed5e" stroke-width="0.3" x1="143.8653032363475" x2="146.44561519142675" y1="172.8068346515853" y2="177.08958963109032" /><path d="M 144.38136562736335 173.6633856474863 a86.0,86.0 0 0,1 -40.68145358897372,12.25698825130547" fill="none" id="id66" stroke="none" /><text fill="#e1ed5e" style="font-size:6.75px; font-family:Arial;" text-anchor="middle"><textPath startOffset="21.466115282336833" xlink:href="#id66">June</textPath></text><path d="M 103.41894727170886 120.7198165907248 l 3.03445524080338 18.389682860123283 a39.6383570709532,39.6383570709532 0 0,0 -0.6741618843440108,0.10529022149512325 l -2.717457492850852 -18.43919138896551" fill="#ffe615" stroke="none" /><path d="M 101.26447882468166 120.96189622390904 l 1.5718351295510655 26.05709500516071 a47.1044606491393,47.1044606491393 0 0,0 -0.8097748726327152,0.0418561113369141 l -1.1230721885048707 -26.080290923259827" fill="#beff1f" stroke="none" /><line stroke="#e1ed5e" stroke-width="0.3" x1="102.19456741930631" x2="102.32365962044197" y1="184.97166512339345" y2="189.96999836594603" /><path d="M 102.22038585953345 185.97133177190398 a86.0,86.0 0 0,1 -42.740103519485714,-10.115201625700543" fill="none" id="id67" stroke="none" /><text fill="#e1ed5e" style="font-size:6.75px; font-family:Arial;" text-anchor="middle"><textPath startOffset="22.20632615414155" xlink:href="#id67">July</textPath></text><path d="M 94.46302465271185 120.25689768951611 l -2.993653650136945 10.952213420702929 a32.353983485526285,32.353983485526285 0 0,0 -0.535949640108221,-0.15146472175084008 l 3.1817344583497795 -10.899059905613568" fill="#ff870c" stroke="none" /><path d="M 94.11515582081647 120.15858648285463 l -3.3723785892594735 11.552113084827043 a33.034294913867114,33.034294913867114 0 0,0 -0.5444760081624148,-0.1640461548545352 l 3.570729571862134 -11.492351560866782" fill="#ff900d" stroke="none" /><path d="M 93.76903079525671 120.05430185196036 l -5.549116466625757 17.859766751644763 a39.70197748857946,39.70197748857946 0 0,0 -0.6508830193808525,-0.20839218859745362 l 5.85572083109755 -17.761601716387602" fill="#ffe715" stroke="none" /><path d="M 93.42475214034765 119.94407469862007 l -4.728363846034817 14.342096870027174 a36.10142931280786,36.10142931280786 0 0,0 -0.588505330381018,-0.19965296043324054 l 4.97453890935306 -14.25858092269581" fill="#ffb911" stroke="none" /><path d="M 93.08242187328487 119.8279376855182 l -3.7057914612937597 10.621954797487753 a32.249836179894835,32.249836179894835 0 0,0 -0.5225708773768549,-0.18737532444607155 l 3.8880818993003414 -10.556591932001723" fill="#ff850c" stroke="none" /><path d="M 92.7421414339146 119.70592522655815 l -5.134997918745528 13.94211310456948 a35.857682236679075,35.857682236679075 0 0,0 -0.5773595323207723,-0.21830797243236733 l 5.374227671826583 -13.851656882030479" fill="#ffb510" stroke="none" /><path d="M 92.40401165467489 119.57807347666478 l -3.7603954789832694 9.69212900835506 a31.396054004907604,31.396054004907604 0 0,0 -0.5021558493190513,-0.19981817575968822 l 3.926672404344179 -9.625963988189305" fill="#ff7a0b" stroke="none" /><path d="M 91.7346041902142 119.30500536409082 l -14.716268081319626 34.37193339403265 a58.38981614671412,58.38981614671412 0 0,0 -0.9205552827005961,-0.40354438330991244 l 15.305744038677965 -34.113524457428284" fill="#44ff2d" stroke="none" /><path d="M 91.07499286063937 119.00905698771935 l -6.411533562231187 13.655698528870744 a36.08594925521823,36.08594925521823 0 0,0 -0.5599977964505581,-0.2688329733063188 l 6.645644026681988 -13.543311279064863" fill="#ffb811" stroke="none" /><path d="M 90.7491055286396 118.85261126421891 l -8.23219917517311 16.776588618499233 a39.68750997147771,39.68750997147771 0 0,0 -0.6107077981468809,-0.30622156807676837 l 8.519760881002751 -16.63239920951316" fill="#ffe715" stroke="none" /><path d="M 90.42595943632237 118.69057910512821 l -17.00474226957979 33.196901395810734 a58.29873351654201,58.29873351654201 0 0,0 -0.8892197484062815,-0.4651977452454314 l 17.573652920512565 -32.89927423162059" fill="#45ff2d" stroke="none" /><line stroke="#e1ed5e" stroke-width="0.3" x1="58.666819895761336" x2="56.23545636021788" y1="174.27360380694188" y2="178.64263932499728" /><path d="M 58.180547188652646 175.14741091055294 a86.0,86.0 0 0,1 -31.652253787137756,-30.449443065178592" fill="none" id="id68" stroke="none" /><text fill="#e1ed5e" style="font-size:6.75px; font-family:Arial;" text-anchor="middle"><textPath startOffset="22.20632615414155" xlink:href="#id68">August</textPath></text><path d="M 89.7882731507175 118.34994917583269 l -7.7789684080507655 13.978407083829246 a36.99713143331327,36.99713143331327 0 0,0 -0.55381399459239,-0.314470039786966 l 8.018431169564362 -13.842433878247647" fill="#ffc412" stroke="none" /><path d="M 87.65650970185807 116.9893568818739 l -7.702809479625731 10.602007704590829 a34.10480222085077,34.10480222085077 0 0,0 -0.47196990982293147,-0.3491520560800393 l 7.884164359867228 -10.467845699771024" fill="#ff9e0e" stroke="none" /><path d="M 86.79598089348748 116.32954008644616 l -9.902608595362562 12.246653288967346 a36.74935470973726,36.74935470973726 0 0,0 -0.4884686979140284,-0.4019764836035954 l 10.111947421821279 -12.074381686506571" fill="#ffc111" stroke="none" /><path d="M 86.24171649860922 115.8653595955263 l -20.714971315586713 23.887461608097652 a52.618362681896095,52.618362681896095 0 0,0 -0.6791718848791698,-0.5992902224448643 l 21.12308555337247 -23.5273482438805" fill="#80ff25" stroke="none" /><path d="M 85.70375840098266 115.38237550388516 l -6.607686456247535 7.109694780824231 a30.70614651551049,30.70614651551049 0 0,0 -0.3840668739795184,-0.3631592015932112 l 6.7290891646178705 -6.994900942485089" fill="#ff700a" stroke="none" /><path d="M 85.18274418774928 114.88116024355367 l -6.786867831435156 6.816138496299933 a30.618800287047822,30.618800287047822 0 0,0 -0.370282446783244,-0.37509416365479076 l 6.903190903273934 -6.6983038386644775" fill="#ff6f0a" stroke="none" /><path d="M 84.19399662182784 113.82643327865904 l -14.14382169801175 12.3724259911821 a39.79161028577451,39.79161028577451 0 0,0 -0.446532905718248,-0.5194186495509713 l 14.354697113300777 -12.127130242469597" fill="#ffe815" stroke="none" /><path d="M 83.72743513129214 113.27417163493432 l -14.399328869758552 11.746099301936143 a39.58255958447078,39.58255958447078 0 0,0 -0.42613846271762046,-0.5316732540242523 l 14.599385244531033 -11.49649821433363" fill="#ffe515" stroke="none" /><path d="M 83.06392112726016 112.41649034213515 l -18.12686724320811 13.289503063234633 a43.476525703956426,43.476525703956426 0 0,0 -0.43729146599890073,-0.6073595996800292 l 18.35293850158262 -12.975509858103466" fill="#e9ff1a" stroke="none" /><path d="M 82.6465618267979 111.8261652097733 l -8.79496948946591 5.9936688717949345 a31.643098931484186,31.643098931484186 0 0,0 -0.3028649819242551,-0.45274205471639195 l 8.896837576800896 -5.841389902872722" fill="#ff7d0b" stroke="none" /><path d="M 82.24976979558568 111.22182372390057 l -8.550628254686071 5.405768933567286 a31.116105046556058,31.116105046556058 0 0,0 -0.2823199184369188,-0.4551896011393256 l 8.642412812790944 -5.257783001062696" fill="#ff760a" stroke="none" /><path d="M 82.05923443525364 110.91462005526583 l -7.900933730685128 4.806689516177361 a30.248189980834486,30.248189980834486 0 0,0 -0.26678777428398476,-0.44715165530406525 l 7.982502380667344 -4.669975766987185" fill="#ff6a09" stroke="none" /><line stroke="#e1ed5e" stroke-width="0.3" x1="26.63291911575756" x2="22.317208475507996" y1="142.92168965132927" y2="145.44649492493687" /><path d="M 25.769776987707644 143.4266507060508 a86.0,86.0 0 0,1 -11.730757126820373,-40.83630448921669" fill="none" id="id69" stroke="none" /><text fill="#e1ed5e" style="font-size:6.75px; font-family:Arial;" text-anchor="middle"><textPath startOffset="21.46611528233685" xlink:href="#id69">September</textPath></text><path d="M 81.69416730710424 110.29060199501025 l -4.955746532854884 2.7858669973288386 a26.685110256161195,26.685110256161195 0 0,0 -0.22164346405056173,-0.4023472679478699 l 5.002966406356963 -2.700149210983146" fill="#ff3805" stroke="none" /><path d="M 81.51974371655577 109.97397251340807 l -8.213121362054567 4.432700794728893 a30.33296302593272,30.33296302593272 0 0,0 -0.24403228673040966,-0.46161712052551435 l 8.288206157009864 -4.2906686591172525" fill="#ff6b09" stroke="none" /><path d="M 81.35079622478065 109.6543875284942 l -3.459435069698809 1.7908929086246093 a24.895508748754636,24.895508748754636 0 0,0 -0.19373605505091035,-0.38225961635975675 l 3.4897497945359857 -1.7310790805621674" fill="#ff1e03" stroke="none" /><path d="M 81.18737489456691 109.33194174019688 l -16.500524473071515 8.185031711546001 a39.41906762041569,39.41906762041569 0 0,0 -0.2962938786269903,-0.610453149319544 l 16.638971608313227 -7.899789606261171" fill="#ffe315" stroke="none" /><path d="M 80.87730276802145 108.67885076344099 l -18.969569966634953 8.609353836955727 a41.83184001016144,41.83184001016144 0 0,0 -0.2919442426468527,-0.6582571961394882 l 19.114955294013086 -8.281548304323543" fill="#fdff18" stroke="none" /><path d="M 80.58989483394504 108.01547362559985 l -25.5455377368395 10.549122852744409 a48.637989999755504,48.637989999755504 0 0,0 -0.3128983474639183,-0.7765880377987301 l 25.723338698560806 -10.107835447102874" fill="#acff20" stroke="none" /><path d="M 80.20201598880116 107.00284435728193 l -20.946241115684867 7.409000144674747 a43.21797245520386,43.21797245520386 0 0,0 -0.24203951565595083,-0.7034801286820743 l 21.070671462284043 -7.0473473129033755" fill="#ecff1a" stroke="none" /><path d="M 79.97269907076064 106.31721596034903 l -37.470534933217394 11.819339119099512 a60.29042841957492,60.29042841957492 0 0,0 -0.3036720571869791,-0.9924178532346914 l 37.6684337629105 -11.172594293312773" fill="#31ff2f" stroke="none" /><path d="M 79.58551787078972 104.9243191809786 l -26.949785816203924 6.5007452247887025 a48.722745968191525,48.722745968191525 0 0,0 -0.18964617532139527,-0.8169907597830297 l 27.057692557455876 -6.035885807657099" fill="#abff21" stroke="none" /><path d="M 79.35854240842038 103.8639653848113 l -12.18116339472526 2.280245641332489 a33.39275037406186,33.39275037406186 0 0,0 -0.1008994672054101,-0.5658977961702419 l 12.218609304269858 -2.0702290944290334" fill="#ff950d" stroke="none" /><path d="M 79.0235259727143 100.99374915477108 l -10.688096616231007 0.5063428183723953 a31.700083753298664,31.700083753298664 0 0,0 -0.021130169570689552,-0.5452757868215913 l 10.695228918652898 -0.3222897845368071" fill="#ff7e0b" stroke="none" /><line stroke="#e1ed5e" stroke-width="0.3" x1="15.007084014347285" x2="10.007500721073583" y1="101.09737516637583" y2="101.16192664675087" /><path d="M 14.007167355692545 101.11028546245083 a86.0,86.0 0 0,1 10.666146001902534,-42.60595125391555" fill="none" id="id70" stroke="none" /><text fill="#e1ed5e" style="font-size:6.75px; font-family:Arial;" text-anchor="middle"><textPath startOffset="22.20632615414155" xlink:href="#id70">October</textPath></text><path d="M 79.00019446554 99.90962569577889 l -22.383169729451108 -0.09632772014211902 a43.383377005427135,43.383377005427135 0 0,0 0.009641424366371013,-0.7467389423978557 l 22.37819529796702 0.4816029206004466" fill="#eaff1a" stroke="none" /><path d="M 79.01574976396665 99.18683210126434 l -22.837007544644393 -0.8849647344845568 a43.854147898695025,43.854147898695025 0 0,0 0.03572315402576963,-0.7540593207014609 l 22.818390782385123 1.2779351618090267" fill="#e4ff1a" stroke="none" /><path d="M 79.12142395522702 97.74499172005258 l -37.90517667353258 -4.09398069429573 a59.12562257297557,59.12562257297557 0 0,0 0.1179968557369734,-1.0109250004889418 l 37.82908946479202 4.745849433109534" fill="#3cff2e" stroke="none" /><path d="M 79.21141760316559 97.0276538004421 l -38.49488960794152 -5.503989480590526 a59.886378413656054,59.886378413656054 0 0,0 0.15468967105736334,-1.0192116571744634 l 38.39444404344486 6.165800250157082" fill="#35ff2f" stroke="none" /><path d="M 79.3925641242962 95.95851677861259 l -1.8241734805756729 -0.35775273348483333 a22.858923318900334,22.858923318900334 0 0,0 0.07904910028779483,-0.3854714867198419 l 1.8177450843728835 0.3890998763680777" fill="#ff0000" stroke="none" /><path d="M 79.46518482838121 95.60439243477599 l -22.3744810075291 -4.789399717635868 a43.88134065153462,43.88134065153462 0 0,0 0.16446227691197332,-0.7372521395845824 l 22.288724343615087 5.173830026770409" fill="#e4ff1a" stroke="none" /><path d="M 79.54389044137918 95.25157060432595 l -12.069624812210666 -2.801694089915795 a33.39053400306058,33.39053400306058 0 0,0 0.13478200310645203,-0.5587584176883128 l 12.019610008843399 3.009037739263505" fill="#ff950d" stroke="none" /><path d="M 79.62865764111835 94.90015583598534 l -18.139410935101495 -4.54109343244671 a39.69919138986203,39.69919138986203 0 0,0 0.1716586761896278,-0.6614709033396425 l 18.058555927041557 4.8526607613352155" fill="#ffe715" stroke="none" /><path d="M 80.38941819471856 92.48833698450439 l -40.786613546251345 -15.622958030759554 a64.67636274006946,64.67636274006946 0 0,0 0.4071729678299355,-1.036210790648521 l 40.51164702853972 16.322717826303837" fill="#35ff62" stroke="none" /><path d="M 80.65960295795068 91.81776055985345 l -17.25360764048095 -7.299392489917473 a39.73414282355951,39.73414282355951 0 0,0 0.2719126409611085,-0.6276118649377584 l 17.12540428967716 7.5953034994418305" fill="#ffe715" stroke="none" /><path d="M 81.43458229118936 90.18545643968196 l -8.313090039461828 -4.394686162887903 a30.403229895864392,30.403229895864392 0 0,0 0.24857087289136862,-0.46056407609472133 l 8.236211067351988 4.5371312223150975" fill="#ff6c0a" stroke="none" /><line stroke="#e1ed5e" stroke-width="0.3" x1="26.266209847984243" x2="21.928928074336255" y1="57.711370442889674" y2="55.22380399835377" /><path d="M 25.398753493254645 57.213857153982495 a86.0,86.0 0 0,1 29.58750427330803,-30.492523968695096" fill="none" id="id71" stroke="none" /><text fill="#e1ed5e" style="font-size:6.75px; font-family:Arial;" text-anchor="middle"><textPath startOffset="21.46611528233685" xlink:href="#id71">November</textPath></text><path d="M 81.78341655067845 89.55222093294921 l -16.17037014997924 -9.274211886626203 a39.641134002666746,39.641134002666746 0 0,0 0.3445764526291551,-0.588992853641438 l 16.008334022879758 9.551184152621532" fill="#ffe615" stroke="none" /><path d="M 83.17141714833178 87.43820079747576 l -7.451571016601175 -5.562271028936597 a30.29864342873723,30.29864342873723 0 0,0 0.31557344268740634,-0.4152576594734699 l 7.35472163368966 5.689713464291093" fill="#ff6b09" stroke="none" /><path d="M 83.84228863543731 86.58626213691792 l -15.232003724536952 -12.645237959785677 a40.79686794732723,40.79686794732723 0 0,0 0.4532131569085131,-0.5364614269912951 l 15.012079954141315 12.905558336406088" fill="#fff417" stroke="none" /><path d="M 85.31137513191541 84.99185889309783 l -6.819657060050133 -6.968002544628988 a30.749911890814587,30.749911890814587 0 0,0 0.3814698716666029,-0.36697371430508485 l 6.698703944771102 7.084359345696387" fill="#ff710a" stroke="none" /><path d="M 86.10567301691215 84.25364557470407 l -41.68298094926353 -47.23906327588782 a84.0,84.0 0 0,0 1.092424805412906,-0.9473400263212777 l 40.863662345203856 47.94956829562878" fill="#4dd2ff" stroke="none" /><path d="M 86.65592168130627 83.78471172551755 l -5.987982508964888 -7.276400830876515 a30.423478316378187,30.423478316378187 0 0,0 0.40723506469431053,-0.3292891010156944 l 5.861844045706077 7.3783960291563435" fill="#ff6c0a" stroke="none" /><path d="M 87.80319425747018 82.90503203632743 l -3.3539391427526044 -4.700860488212617 a26.774685887814734,26.774685887814734 0 0,0 0.3774833685147982,-0.26445122301748286 l 3.272524634654146 4.757896553994042" fill="#ff3905" stroke="none" /><path d="M 88.09926311788651 82.69761687909137 l -3.4470056589944287 -5.0115730750674174 a27.08257451248074,27.08257451248074 0 0,0 0.38637200892020623,-0.26088010515041105 l 3.360228955667683 5.070165092516494" fill="#ff3d05" stroke="none" /><line stroke="#e1ed5e" stroke-width="0.3" x1="56.762969772571076" x2="54.21961505331055" y1="26.818313649435495" y2="22.513508569990535" /><path d="M 56.25429882871897 25.957352633546506 a86.0,86.0 0 0,1 42.265352541879196,-11.944610805530505" fill="none" id="id72" stroke="none" /><text fill="#e1ed5e" style="font-size:6.75px; font-family:Arial;" text-anchor="middle"><textPath startOffset="22.20632615414155" xlink:href="#id72">December</textPath></text><path d="M 90.26544431104013 81.39251694778311 l -3.10811090550891 -5.941115634507922 a27.70501367511938,27.70501367511938 0 0,0 0.4244665519609306,-0.21742825428471113 l 3.0053838659592156 5.993736414105138" fill="#ff4606" stroke="none" /><path d="M 90.91171255644093 81.06846463323043 l -13.712459053083315 -28.56400671094587 a52.68491774749379,52.68491774749379 0 0,0 0.8209358582318058,-0.38544039298790383 l 13.2187449835519 28.79581208657378" fill="#7fff26" stroke="none" /><path d="M 94.98787191387505 79.60689891045804 l -1.6747018094263049 -6.813944637411262 a28.016727704008574,28.016727704008574 0 0,0 0.4693152940519412,-0.11107176713308685 l 1.5571628284118297 6.8417623166852195" fill="#ff4b07" stroke="none" /><path d="M 95.692805502759 79.44645832069477 l -0.380774684800072 -1.8170222773723694 a22.85649113034565,22.85649113034565 0 0,0 0.38576705801480754,-0.07738124272970949 l 0.34944121731812805 1.8233074761792896" fill="#ff0000" stroke="none" /></svg>