<?xml version="1.0" encoding="utf-8" ?>
<svg baseProfile="full" height="200mm" version="1.1" viewBox="0,0,200,200" width="200mm" xmlns="http://www.w3.org/2000/svg" xmlns:ev="http://www.w3.org/2001/xml-events" xmlns:xlink="http://www.w3.org/1999/xlink"><defs /><rect fill="#1a1a1a" height="200" width="200" x="0" y="0" /><text alignment-baseline="middle" fill="#e1ed5e" style="dominant-baseline: central; font-size:9.0px; font-family:Arial;" text-anchor="middle" x="100.0" y="100.0">2025</text><line stroke="#e1ed5e" stroke-width="0.3" x1="100.0" x2="100.0" y1="15.0" y2="10.0" /><path d="M 100.0 14.0 a86.0,86.0 0 0,1 42.46469731375804,11.215312516191453" fill="none" id="id97" stroke="none" /><text fill="#e1ed5e" style="font-size:6.75px; font-family:Arial;" text-anchor="middle"><textPath startOffset="22.20632615414155" xlink:href="#id97">January</textPath></text><path d="M 100.0 79.0 l 0.0 -39.81882042204078 a60.81882042204078,60.81882042204078 0 0,0 1.0468960169023398,0.009010964534346673 l -0.6854155376298116 39.81292083411499" fill="#6fff28" stroke="none" /><path d="M 101.44485096284872 79.0497635885617 l 2.045343200432766 -29.65733123581752 a50.72777699120057,50.72777699120057 0 0,0 0.8706089761651421,0.06757601243289896 l -2.555542365960249 29.617729961196154" fill="#fffa17" stroke="none" /><path d="M 105.36241919743992 79.69619591428918 l 8.509616761472657 -32.22008299013767 a54.32487547341318,54.32487547341318 0 0,0 0.9020570831065827,0.24656627621675475 l -9.06297173380295 32.06883017309462" fill="#ccff1d" stroke="none" /><path d="M 108.76106565485865 80.91482961587045 l 12.448686731614153 -27.118311480721594 a50.83911223390037,50.83911223390037 0 0,0 0.7921745352913034,0.37193656622010113 l -12.913639478205054 26.90000993186149" fill="#fffc17" stroke="none" /><path d="M 109.08828744355905 81.06846463323043 l 9.181334758351163 -19.12535940036328 a42.21500129950435,42.21500129950435 0 0,0 0.6523800421371962,0.3201200534213062 l -9.509186067498792 18.96448418680714" fill="#ff6b09" stroke="none" /><path d="M 109.41281617654863 81.2277094730956 l 9.187162108508556 -18.322261157970175 a41.49656560375123,41.49656560375123 0 0,0 0.6357659420996256,0.3256640088265901 l -9.501188538196937 18.161404623831086" fill="#ff5e08" stroke="none" /><path d="M 110.05341064243156 81.56283822128135 l 10.203591066814264 -18.712580825927777 a42.313703381290914,42.313703381290914 0 0,0 0.6364704571571893,0.35419512031603306 l -10.524185613043487 18.534170308051564" fill="#ff6d0a" stroke="none" /><line stroke="#e1ed5e" stroke-width="0.3" x1="143.23703022742887" x2="145.7803849466894" y1="26.81831364943548" y2="22.513508569990506" /><path d="M 143.74570117128098 25.957352633546492 a86.0,86.0 0 0,1 28.547481713284135,27.462654790039103" fill="none" id="id98" stroke="none" /><text fill="#e1ed5e" style="font-size:6.75px; font-family:Arial;" text-anchor="middle"><textPath startOffset="19.985693538727396" xlink:href="#id98">February</textPath></text><path d="M 110.68208982089419 81.91981866633111 l 15.08831704718946 -25.538027933398983 a50.662234946874364,50.662234946874364 0 0,0 0.7469976071307988,0.45005770008303225 l -15.525676720537895 25.274523623857334" fill="#fff917" stroke="none" /><path d="M 111.90073688211348 82.69761687909136 l 16.738474009433556 -24.335929198289936 a50.53665455173729,50.53665455173729 0 0,0 0.7124918915422648,0.4991461023825362 l -17.154897040559472 24.044198253143463" fill="#fff717" stroke="none" /><path d="M 112.19680574252982 82.90503203632743 l 12.411829124317581 -17.396343413991087 a42.37021914695236,42.37021914695236 0 0,0 0.590065192221076,0.4287074564442672 l -12.709439632892447 17.180116722730144" fill="#ff6e0a" stroke="none" /><path d="M 114.16331599549186 84.49514656593476 l 12.094051783250093 -13.239590247296185 a38.93189444682951,38.93189444682951 0 0,0 0.49089803421198275,0.45623622279956727 l -12.320157701256923 13.029449438421977" fill="#ff3004" stroke="none" /><path d="M 114.94478906791727 85.2469230424477 l 10.953721029781384 -10.813206435334774 a36.391862714156474,36.391862714156474 0 0,0 0.4362443978839787,0.4495881989846183 l -11.138229691368473 10.623054040800042" fill="#ff0000" stroke="none" /><path d="M 115.68641384162765 86.03803664274999 l 47.05924152488298 -41.88589007175005 a84.0,84.0 0 0,0 0.9520325456886072,1.0883377751882088 l -47.773265934149435 41.069636740358895" fill="#4dd2ff" stroke="none" /><path d="M 116.38621287248628 86.86637796730983 l 23.316501482392034 -18.688278980470287 a50.88161663348015,50.88161663348015 0 0,0 0.5418793301361962,0.6881317205654267 l -23.634734893122193 18.28415486595182" fill="#fffd17" stroke="none" /><path d="M 117.04232023915458 87.72973835380427 l 15.505906138104248 -11.16406232871786 a40.1067897053167,40.1067897053167 0 0,0 0.3985609938894829,0.5637362608464352 l -15.695779751797613 10.895499567539632" fill="#ff4506" stroke="none" /><line stroke="#e1ed5e" stroke-width="0.3" x1="172.23445277983987" x2="176.4835382374775" y1="55.19839476539836" y2="52.563006222186495" /><path d="M 173.08426987136738 54.67131705675599 a86.0,86.0 0 0,1 12.851231095245387,41.99856678651699" fill="none" id="id99" stroke="none" /><text fill="#e1ed5e" style="font-size:6.75px; font-family:Arial;" text-anchor="middle"><textPath startOffset="22.20632615414155" xlink:href="#id99">March</textPath></text><line stroke="#e1ed5e" stroke-width="0.3" x1="184.98032266829074" x2="189.97916517819016" y1="98.17113171792111" y2="98.06355123074" /><path d="M 185.9800911702706 98.14961562048488 a86.0,86.0 0 0,1 -9.607161424134198,41.387399972396054" fill="none" id="id100" stroke="none" /><text fill="#e1ed5e" style="font-size:6.75px; font-family:Arial;" text-anchor="middle"><textPath startOffset="21.466115282336823" xlink:href="#id100">April</textPath></text><line stroke="#e1ed5e" stroke-width="0.3" x1="174.80103733775053" x2="179.2010983576182" y1="140.37084112569926" y2="142.7455964860345" /><path d="M 175.68104954172406 140.8457921977663 a86.0,86.0 0 0,1 -30.038265399797805,32.042727171017184" fill="none" id="id101" stroke="none" /><text fill="#e1ed5e" style="font-size:6.75px; font-family:Arial;" text-anchor="middle"><textPath startOffset="22.206326154141568" xlink:href="#id101">May</textPath></text><line stroke="#e1ed5e" stroke-width="0.3" x1="143.8653032363475" x2="146.44561519142675" y1="172.8068346515853" y2="177.08958963109032" /><path d="M 144.38136562736335 173.6633856474863 a86.0,86.0 0 0,1 -40.68145358897372,12.25698825130547" fill="none" id="id102" stroke="none" /><text fill="#e1ed5e" style="font-size:6.75px; font-family:Arial;" text-anchor="middle"><textPath startOffset="21.466115282336833" xlink:href="#id102">June</textPath></text><line stroke="#e1ed5e" stroke-width="0.3" x1="102.19456741930631" x2="102.32365962044197" y1="184.97166512339345" y2="189.96999836594603" /><path d="M 102.22038585953345 185.97133177190398 a86.0,86.0 0 0,1 -42.740103519485714,-10.115201625700543" fill="none" id="id103" stroke="none" /><text fill="#e1ed5e" style="font-size:6.75px; font-family:Arial;" text-anchor="middle"><textPath startOffset="22.20632615414155" xlink:href="#id103">July</textPath></text><line stroke="#e1ed5e" stroke-width="0.3" x1="58.666819895761336" x2="56.23545636021788" y1="174.27360380694188" y2="178.64263932499728" /><path d="M 58.180547188652646 175.14741091055294 a86.0,86.0 0 0,1 -31.652253787137756,-30.449443065178592" fill="none" id="id104" stroke="none" /><text fill="#e1ed5e" style="font-size:6.75px; font-family:Arial;" text-anchor="middle"><textPath startOffset="22.20632615414155" xlink:href="#id104">August</textPath></text><line stroke="#e1ed5e" stroke-width="0.3" x1="26.63291911575756" x2="22.317208475507996" y1="142.92168965132927" y2="145.44649492493687" /><path d="M 25.769776987707644 143.4266507060508 a86.0,86.0 0 0,1 -11.730757126820373,-40.83630448921669" fill="none" id="id105" stroke="none" /><text fill="#e1ed5e" style="font-size:6.75px; font-family:Arial;" text-anchor="middle"><textPath startOffset="21.46611528233685" xlink:href="#id105">September</textPath></text><line stroke="#e1ed5e" stroke-width="0.3" x1="15.007084014347285" x2="10.007500721073583" y1="101.09737516637583" y2="101.16192664675087" /><path d="M 14.007167355692545 101.11028546245083 a86.0,86.0 0 0,1 10.666146001902534,-42.60595125391555" fill="none" id="id106" stroke="none" /><text fill="#e1ed5e" style="font-size:6.75px; font-family:Arial;" text-anchor="middle"><textPath startOffset="22.20632615414155" xlink:href="#id106">October</textPath></text><line stroke="#e1ed5e" stroke-width="0.3" x1="26.266209847984243" x2="21.928928074336255" y1="57.711370442889674" y2="55.22380399835377" /><path d="M 25.398753493254645 57.213857153982495 a86.0,86.0 0 0,1 29.58750427330803,-30.492523968695096" fill="none" id="id107" stroke="none" /><text fill="#e1ed5e" style="font-size:6.75px; font-family:Arial;" text-anchor="middle"><textPath startOffset="21.46611528233685" xlink:href="#id107">November</textPath></text><line stroke="#e1ed5e" stroke-width="0.3" x1="56.762969772571076" x2="54.21961505331055" y1="26.818313649435495" y2="22.513508569990535" /><path d="M 56.25429882871897 25.957352633546506 a86.0,86.0 0 0,1 42.265352541879196,-11.944610805530505" fill="none" id="id108" stroke="none" /><text fill="#e1ed5e" style="font-size:6.75px; font-family:Arial;" text-anchor="middle"><textPath startOffset="22.20632615414155" xlink:href="#id108">December</textPath></text></svg>