<?xml version="1.0" encoding="utf-8" ?>
<svg baseProfile="full" height="200mm" version="1.1" viewBox="0,0,200,200" width="200mm" xmlns="http://www.w3.org/2000/svg" xmlns:ev="http://www.w3.org/2001/xml-events" xmlns:xlink="http://www.w3.org/1999/xlink"><defs /><rect fill="#1a1a1a" height="200" width="200" x="0" y="0" /><text alignment-baseline="middle" fill="#e1ed5e" style="dominant-baseline: central; font-size:9.0px; font-family:Arial;" text-anchor="middle" x="100.0" y="100.0">2025</text><line stroke="#e1ed5e" stroke-width="0.3" x1="100.0" x2="100.0" y1="15.0" y2="10.0" /><path d="M 100.0 14.0 a86.0,86.0 0 0,1 42.46469731375804,11.215312516191453" fill="none" id="id97" stroke="none" /><text fill="#e1ed5e" style="font-size:6.75px; font-family:Arial;" text-anchor="middle"><textPath startOffset="22.20632615414155" xlink:href="#id97">January</textPath></text><path d="M 100.0 79.0 l 0.0 -20.350162313784807 a41.35016231378481,41.35016231378481 0 0,0 0.711775071008751,0.006126472751582025 l -0.35029459173622274 20.347147217641783" fill="#fff116" stroke="none" /><path d="M 101.44485096284872 79.0497635885617 l 1.0453113797706421 -15.156940814562548 a36.192943452038186,36.192943452038186 0 0,0 0.6211567569508846,0.048213719223738 l -1.3060583260838678 15.136701833150346" fill="#ffae10" stroke="none" /><path d="M 105.36241919743992 79.69619591428918 l 4.34900081139061 -16.46668363510788 a38.03130875758542,38.03130875758542 0 0,0 0.631504649493086,0.17261407593279712 l -4.631803350107407 16.389383018348788" fill="#ffc712" stroke="none" /><path d="M 108.76106565485865 80.91482961587045 l 6.362137122514577 -13.859326681686127 a36.249843436421735,36.249843436421735 0 0,0 0.5648446956845451,0.26520215836437283 l -6.59976002949872 13.747759540681752" fill="#ffaf10" stroke="none" /><path d="M 109.08828744355905 81.06846463323043 l 4.692295015505243 -9.774377140801182 a31.84232820952917,31.84232820952917 0 0,0 0.49208335377507084,0.24146316460288547 l -4.859849636290745 9.692158816063465" fill="#ff730a" stroke="none" /><path d="M 109.41281617654863 81.2277094730956 l 5.545751856799121 -11.060076293142387 a33.37257658159048,33.37257658159048 0 0,0 0.5112988817746589,0.26190714620129096 l -5.735311226162535 10.962976621628597" fill="#ff880c" stroke="none" /><path d="M 110.05341064243156 81.56283822128135 l 5.21473846267475 -9.563418832634788 a31.892771777765894,31.892771777765894 0 0,0 0.4797218255866425,0.26696467655516626 l -5.378584377333428 9.472238758519442" fill="#ff730a" stroke="none" /><line stroke="#e1ed5e" stroke-width="0.3" x1="143.23703022742887" x2="145.7803849466894" y1="26.81831364943548" y2="22.513508569990506" /><path d="M 143.74570117128098 25.957352633546492 a86.0,86.0 0 0,1 28.547481713284135,27.462654790039103" fill="none" id="id98" stroke="none" /><text fill="#e1ed5e" style="font-size:6.75px; font-family:Arial;" text-anchor="middle"><textPath startOffset="19.985693538727396" xlink:href="#id98">February</textPath></text><path d="M 110.68208982089419 81.91981866633111 l 7.711170187808764 -13.051692845501016 a36.15944694897057,36.15944694897057 0 0,0 0.5331588780948666,0.32122225849675307 l -7.934691132121268 12.917023977545648" fill="#ffae10" stroke="none" /><path d="M 111.90073688211348 82.69761687909136 l 8.554514156036952 -12.437337520120167 a36.09526670964198,36.09526670964198 0 0,0 0.5088897371975183,0.3565097819075273 l -8.76733503281812 12.288242895448704" fill="#ffad10" stroke="none" /><path d="M 112.19680574252982 82.90503203632743 l 6.343300344251608 -8.890730774764515 a31.921655230171268,31.921655230171268 0 0,0 0.4445541705620555,0.3229875109154802 l -6.495399831167452 8.780224029032361" fill="#ff740a" stroke="none" /><path d="M 114.16331599549186 84.49514656593476 l 6.180894215646483 -6.766343343293618 a30.164434273011402,30.164434273011402 0 0,0 0.3803478278705686,0.35349185420195434 l -6.296449927311899 6.658946903017024" fill="#ff5b08" stroke="none" /><path d="M 114.94478906791727 85.2469230424477 l 5.598106587119856 -5.526293942392154 a28.866302949828142,28.866302949828142 0 0,0 0.34603238224971916,0.35661678701346533 l -5.692403233072684 5.429112959828575" fill="#ff4806" stroke="none" /><path d="M 115.68641384162765 86.03803664274999 l 24.05051664626605 -21.40657740694004 a53.19734317038653,53.19734317038653 0 0,0 0.6029238338377801,0.6892461679997873 l -24.41543234368168 20.989415682737306" fill="#80ff25" stroke="none" /><path d="M 116.38621287248628 86.86637796730983 l 11.916339678752426 -9.550998914255924 a36.27156611482684,36.27156611482684 0 0,0 0.3862851310498699,0.4905428885640983 l -12.07897889039626 9.344463631738789" fill="#ffaf10" stroke="none" /><path d="M 117.04232023915458 87.72973835380427 l 7.924587001529294 -5.705605491639899 a30.76488674645223,30.76488674645223 0 0,0 0.3057258865308267,0.4324275851355399 l -8.021625507864004 5.5683514061725665" fill="#ff6309" stroke="none" /><line stroke="#e1ed5e" stroke-width="0.3" x1="172.23445277983987" x2="176.4835382374775" y1="55.19839476539836" y2="52.563006222186495" /><path d="M 173.08426987136738 54.67131705675599 a86.0,86.0 0 0,1 12.851231095245387,41.99856678651699" fill="none" id="id99" stroke="none" /><text fill="#e1ed5e" style="font-size:6.75px; font-family:Arial;" text-anchor="middle"><textPath startOffset="22.20632615414155" xlink:href="#id99">March</textPath></text><path d="M 118.03404312379186 89.2402003453031 l 13.08162158696786 -7.804995611252416 a36.23308175768426,36.23308175768426 0 0,0 0.3149523113805205,0.5383555934410476 l -13.214033572818709 7.578660605457473" fill="#ffaf10" stroke="none" /><path d="M 119.47837535516314 92.15188598940014 l 8.451773034828149 -3.4053393653009465 a30.112014246318783,30.112014246318783 0 0,0 0.18957154806749857,0.48243891227458435 l -8.509138132777347 3.2593514481305776" fill="#ff5a08" stroke="none" /><path d="M 119.61058180528143 92.48833698450437 l 6.969468701597192 -2.6695944466748425 a28.463258570641916,28.463258570641916 0 0,0 0.17131548950575842,0.45904033917275944 l -7.014388779604576 2.54923097047275" fill="#ff4206" stroke="none" /><path d="M 119.97218684219823 93.5106431181261 l 7.1986630689135644 -2.3389874176344367 a28.569122281981727,28.569122281981727 0 0,0 0.14793978008195544,0.4690095310503086 l -7.237858332763726 2.214727720157709" fill="#ff4406" stroke="none" /><path d="M 120.53481517161879 95.60439243477599 l 4.476673367831338 -0.9582603572625722 a25.578085555617257,25.578085555617257 0 0,0 0.0884523134378749,0.4313248935228131 l -4.492504977184209 0.8810598075763473" fill="#ff1802" stroke="none" /><path d="M 120.78858239683441 97.02765380044208 l 9.180298387085287 -1.3125967177933078 a30.273661014911127,30.273661014911127 0 0,0 0.06931803546493973,0.5164998790568902 l -9.201532421608063 1.1543784966717532" fill="#ff5c08" stroke="none" /><path d="M 120.83666639777658 97.38593545837742 l 7.750597149215775 -0.9723513731701311 a28.81135221087473,28.81135221087473 0 0,0 0.057498742887953716,0.4926141151734605 l -7.766186245107318 0.8387935196718179" fill="#ff4706" stroke="none" /><path d="M 120.91429891909075 98.10471618934814 l 17.053443164435535 -1.545407516190914 a38.12332351366791,38.12332351366791 0 0,0 0.05360051453606849,0.6540620424647797 l -17.077518162791097 1.2516315565183656" fill="#ffc812" stroke="none" /><path d="M 120.96714384426684 98.82574320788733 l 23.738838678715393 -1.32948449070571 a44.7760381650329,44.7760381650329 0 0,0 0.03647411669537935,0.7699109557532409 l -23.75820640364427 0.9206624283294694" fill="#e2ff1b" stroke="none" /><line stroke="#e1ed5e" stroke-width="0.3" x1="184.98032266829074" x2="189.97916517819016" y1="98.17113171792111" y2="98.06355123074" /><path d="M 185.9800911702706 98.14961562048488 a86.0,86.0 0 0,1 -9.607161424134198,41.387399972396054" fill="none" id="id100" stroke="none" /><text fill="#e1ed5e" style="font-size:6.75px; font-family:Arial;" text-anchor="middle"><textPath startOffset="21.466115282336823" xlink:href="#id100">April</textPath></text><path d="M 120.99824983174949 100.27111621757518 l 7.674962459027478 0.09909429636258915 a28.675602154036692,28.675602154036692 0 0,0 -0.01062081123922679,0.49350736461046574 l -7.6721195851032435 -0.23119147676316973" fill="#ff4606" stroke="none" /><path d="M 120.41448212921028 104.9243191809786 l 7.57153145503575 1.8263817488696532 a28.788694297968046,28.788694297968046 0 0,0 -0.12034864931332812,0.4807330300188725 l -7.538971491427361 -1.9564426182859218" fill="#ff4706" stroke="none" /><path d="M 120.13307415673323 105.97154293290107 l 14.521723416167253 4.307195918729397 a36.14702570335112,36.14702570335112 0 0,0 -0.18206607490224888,0.5950024670531423 l -14.445430568758871 -4.5565253583345955" fill="#ffae10" stroke="none" /><path d="M 120.02730092923936 106.31721596034902 l 11.328469976853045 3.573341789638189 a32.878678527598744,32.878678527598744 0 0,0 -0.17489538894659576,0.5382726592888044 l -11.265282336890202 -3.7678133489047885" fill="#ff810b" stroke="none" /><path d="M 119.79798401119884 107.00284435728193 l 4.437678313284651 1.5696734838274071 a25.707107780583293,25.707107780583293 0 0,0 -0.15115257764884799,0.4159069762406667 l -4.410001474630576 -1.6458282570742049" fill="#ff1a02" stroke="none" /><path d="M 119.41010516605496 108.01547362559984 l 8.682950355943497 3.58565597533047 a30.394176688630164,30.394176688630164 0 0,0 -0.20385666495529312,0.4818569376689826 l -8.619942709795895 -3.734587438665616" fill="#ff5e08" stroke="none" /><path d="M 119.12269723197855 108.67885076344098 l 13.81862146945979 6.271591922156603 a36.17521546978082,36.17521546978082 0 0,0 -0.262227906466145,0.5648155816383591 l -13.708618946153813 -6.508527571073793" fill="#ffae10" stroke="none" /><line stroke="#e1ed5e" stroke-width="0.3" x1="174.80103733775053" x2="179.2010983576182" y1="140.37084112569926" y2="142.7455964860345" /><path d="M 175.68104954172406 140.8457921977663 a86.0,86.0 0 0,1 -30.038265399797805,32.042727171017184" fill="none" id="id101" stroke="none" /><text fill="#e1ed5e" style="font-size:6.75px; font-family:Arial;" text-anchor="middle"><textPath startOffset="22.206326154141568" xlink:href="#id101">May</textPath></text><path d="M 118.48025628344425 109.97397251340804 l 13.5352598488297 7.305110255154014 a36.38076379817653,36.38076379817653 0 0,0 -0.30217444993211845,0.548534399128978 l -13.407508989446072 -7.537015172680798" fill="#ffb110" stroke="none" /><path d="M 115.56566222782051 114.09645910891815 l 11.25362729206331 10.191426142219962 a36.18253253054301,36.18253253054301 0 0,0 -0.42204958624610234,0.4580514700645115 l -11.076531297821486 -10.38362886708581" fill="#ffae10" stroke="none" /><path d="M 114.81725581225074 114.88116024355365 l 10.463436270044081 10.50856338081169 a35.829477499420214,35.829477499420214 0 0,0 -0.44078796277741056,0.4314037951460202 l -10.280998354890876 -10.687117278880283" fill="#ffa90f" stroke="none" /><path d="M 114.29624159901734 115.38237550388516 l 10.208994745137648 10.984606660375116 a35.996171417712105,35.996171417712105 0 0,0 -0.4574949699454931,0.41791080794416696 l -10.018400225725292 -11.158710234905866" fill="#ffac0f" stroke="none" /><path d="M 113.20401910651253 116.32954008644616 l 14.396663688418306 17.804495352112774 a43.896811570627634,43.896811570627634 0 0,0 -0.5916506480316399,0.4700430574067397 l -14.088055547669315 -18.04967232352464" fill="#edff1a" stroke="none" /><path d="M 112.34349029814194 116.9893568818739 l 4.529348387059786 6.234113231464359 a28.70578773352083,28.70578773352083 0 0,0 -0.4022537553593279,0.28699737394926295 l -4.421367303851573 -6.311154867257841" fill="#ff4606" stroke="none" /><path d="M 111.7513745106137 117.40417183066458 l 5.047129278188234 7.474964322669577 a30.01934618339533,30.01934618339533 0 0,0 -0.4307423110638527,0.2854725161128012 l -4.917712268384417 -7.560734859873697" fill="#ff5908" stroke="none" /><line stroke="#e1ed5e" stroke-width="0.3" x1="143.8653032363475" x2="146.44561519142675" y1="172.8068346515853" y2="177.08958963109032" /><path d="M 144.38136562736335 173.6633856474863 a86.0,86.0 0 0,1 -40.68145358897372,12.25698825130547" fill="none" id="id102" stroke="none" /><text fill="#e1ed5e" style="font-size:6.75px; font-family:Arial;" text-anchor="middle"><textPath startOffset="21.466115282336833" xlink:href="#id102">June</textPath></text><path d="M 110.8373102113329 117.98757091392108 l 12.535118966643282 20.805563089921108 a45.28992925054718,45.28992925054718 0 0,0 -0.6712229096010357,0.39657032625265193 l -12.175128186013863 -21.018251988467508" fill="#dcff1b" stroke="none" /><path d="M 110.21172684928248 118.3499491758327 l 4.79859265535773 8.62282478183652 a30.8681101883951,30.8681101883951 0 0,0 -0.4665159054534073,0.25438166812434493 l -4.649453938035674 -8.704147101720634" fill="#ff6509" stroke="none" /><path d="M 109.57404056367764 118.69057910512821 l 3.401486598608197 6.640430852937489 a28.460927086706803,28.460927086706803 0 0,0 -0.4379541605616752,0.21959930788485857 l -3.2866785303637616 -6.69799800173165" fill="#ff4206" stroke="none" /><path d="M 106.91757812671514 119.82793768551818 l 2.715219589747795 7.782666685050151 a29.24271303340955,29.24271303340955 0 0,0 -0.4766983696365298,0.16172196889026252 l -2.5808514871740384 -7.828251640838536" fill="#ff4e07" stroke="none" /><path d="M 106.2309692047433 120.05430185196036 l 2.4565415698779827 7.906350446527547 a29.279189203529832,29.279189203529832 0 0,0 -0.4825838148305067,0.14539854471303493 l -2.32008278060723 -7.9474643603463075" fill="#ff4e07" stroke="none" /><path d="M 103.7750983002368 120.6578951692458 l 3.4677725605484695 18.976163355032007 a40.29041788579378,40.29041788579378 0 0,0 -0.683308274754589,0.11880190226052513 l -3.1406153143218307 -19.03304383581354" fill="#ffe415" stroke="none" /><path d="M 103.06178313531738 120.77559828337769 l 2.325572165335087 15.780070289334303 a36.950514230974264,36.950514230974264 0 0,0 -0.6300439374788583,0.08731834876113666 l -2.0535996366693983 -15.817763203588042" fill="#ffb811" stroke="none" /><path d="M 100.90346689309514 120.98055641714683 l 0.38188363961424454 8.868206800875306 a29.876425349052177,29.876425349052177 0 0,0 -0.5139878306344797,0.01770278013933417 l -0.22917545730511252 -8.873466379440734" fill="#ff5708" stroke="none" /><line stroke="#e1ed5e" stroke-width="0.3" x1="102.19456741930631" x2="102.32365962044197" y1="184.97166512339345" y2="189.96999836594603" /><path d="M 102.22038585953345 185.97133177190398 a86.0,86.0 0 0,1 -42.740103519485714,-10.115201625700543" fill="none" id="id103" stroke="none" /><text fill="#e1ed5e" style="font-size:6.75px; font-family:Arial;" text-anchor="middle"><textPath startOffset="22.20632615414155" xlink:href="#id103">July</textPath></text><path d="M 98.01472825383883 120.90594882070398 l -0.7457533648139952 7.853172598570504 a28.888502262411414,28.888502262411414 0 0,0 -0.4946363688785102,-0.05127108208034563 l 0.8808223302980988 -7.839172148034398" fill="#ff4906" stroke="none" /><path d="M 96.22490169976321 120.6578951692458 l -1.4325658021689631 7.83921154116614 a28.96903271198559,28.96903271198559 0 0,0 -0.48975927558508775,-0.0938635308027797 l 1.567292692325746 -7.813390812014893" fill="#ff4a06" stroke="none" /><path d="M 95.86986931433489 120.58985236759428 l -2.325573519340087 11.593632036727696 a32.824575933068154,32.824575933068154 0 0,0 -0.5530292971466174,-0.11589266622021513 l 2.524794277916091 -11.551883389780938" fill="#ff800b" stroke="none" /><path d="M 95.16358092515715 120.4354850818985 l -0.6838234661409053 2.8893824180090637 a23.969199435933003,23.969199435933003 0 0,0 -0.4006813680628177,-0.0984777317405887 l 0.7334581189469335 -2.877183427954445" fill="#ff0000" stroke="none" /><path d="M 92.40401165467489 119.57807347666478 l -2.6787451131473365 6.904258704231935 a28.405704803472332,28.405704803472332 0 0,0 -0.4543275030315671,-0.18078628970732522 l 2.7971936922207616 -6.857125570118543" fill="#ff4206" stroke="none" /><path d="M 91.40352486487194 119.15986991738527 l -6.049638006284389 13.483465656060703 a35.77842908110497,35.77842908110497 0 0,0 -0.5597313816337457,-0.25694522421742816 l 6.2808373836855536 -13.3773333615092" fill="#ffa90f" stroke="none" /><path d="M 90.10565033884886 118.52300852407294 l -11.147247959757928 20.868533663133974 a44.659180761930095,44.659180761930095 0 0,0 -0.6749431054510227,-0.3680327959810679 l 11.504813877077591 -20.673560215393138" fill="#e3ff1b" stroke="none" /><line stroke="#e1ed5e" stroke-width="0.3" x1="58.666819895761336" x2="56.23545636021788" y1="174.27360380694188" y2="178.64263932499728" /><path d="M 58.180547188652646 175.14741091055294 a86.0,86.0 0 0,1 -31.652253787137756,-30.449443065178592" fill="none" id="id104" stroke="none" /><text fill="#e1ed5e" style="font-size:6.75px; font-family:Arial;" text-anchor="middle"><textPath startOffset="22.20632615414155" xlink:href="#id104">August</textPath></text><path d="M 88.8546689885994 117.79835938074946 l -7.845592773365456 12.528894798416694 a35.78264289074444,35.78264289074444 0 0,0 -0.5192201171269577,-0.3313908448000131 l 8.060094692539337 -12.391989524792876" fill="#ffa90f" stroke="none" /><path d="M 87.95078237400918 117.19931262002967 l -5.090696395391855 7.266569621013286 a29.872329110616263,29.872329110616263 0 0,0 -0.418600481464692,-0.2986603289929454 l 5.215024204705434 -7.177865030176121" fill="#ff5708" stroke="none" /><path d="M 84.9287848128048 114.62390073753433 l -8.496531717844954 8.244354215089702 a32.83893693100072,32.83893693100072 0 0,0 -0.3901476011411563,-0.40906820000694766 l 8.637185870365068 -8.096878898500254" fill="#ff800b" stroke="none" /><path d="M 84.19399662182784 113.82643327865904 l -5.575259626760099 4.877004856715039 a28.407340702182076,28.407340702182076 0 0,0 -0.3187810771259095,-0.37081441135185145 l 5.658383213456787 -4.780313346201657" fill="#ff4206" stroke="none" /><path d="M 83.95833913139862 113.55231037782056 l -13.548222483988058 11.445804625514532 a38.73586129854114,38.73586129854114 0 0,0 -0.4259173962572525,-0.5130449412472354 l 13.743235880138846 -11.210898427153536" fill="#ffd013" stroke="none" /><path d="M 83.72743513129214 113.27417163493432 l -5.0404757327822525 4.111714443206022 a27.504812931609624,27.504812931609624 0 0,0 -0.2961116921961317,-0.36944486526875364 l 5.110505337033246 -4.024341744359009" fill="#ff3505" stroke="none" /><path d="M 82.05923443525364 110.91462005526583 l -6.7179028907768075 4.086969274325805 a28.86343036461763,28.86343036461763 0 0,0 -0.2545742522133115,-0.4266810897931399 l 6.787258018688351 -3.9707260906465534" fill="#ff4806" stroke="none" /><line stroke="#e1ed5e" stroke-width="0.3" x1="26.63291911575756" x2="22.317208475507996" y1="142.92168965132927" y2="145.44649492493687" /><path d="M 25.769776987707644 143.4266507060508 a86.0,86.0 0 0,1 -11.730757126820373,-40.83630448921669" fill="none" id="id105" stroke="none" /><text fill="#e1ed5e" style="font-size:6.75px; font-family:Arial;" text-anchor="middle"><textPath startOffset="21.46611528233685" xlink:href="#id105">September</textPath></text><path d="M 81.18737489456691 109.33194174019688 l -7.962034150189109 3.9495412472533964 a29.88779296971602,29.88779296971602 0 0,0 -0.22465194224967483,-0.4628495407416557 l 8.028839349053502 -3.811902750546456" fill="#ff5708" stroke="none" /><path d="M 80.87730276802145 108.67885076344099 l -8.473726971370272 3.845807466515974 a30.30560496984683,30.30560496984683 0 0,0 -0.21150269480681355,-0.4768827417086242 l 8.538670750908365 -3.6993763883146538" fill="#ff5d08" stroke="none" /><path d="M 80.58989483394504 108.01547362559985 l -6.874232463063939 2.838739333586529 a28.437305490585512,28.437305490585512 0 0,0 -0.18294312520676834,-0.4540498337066945 l 6.922078202528096 -2.719990132037029" fill="#ff4206" stroke="none" /><path d="M 80.32549172779594 107.34259656027581 l -7.185967520191868 2.6818286722092295 a28.670093495410338,28.670093495410338 0 0,0 -0.16857433244738573,-0.4638441631002978 l 7.231066113644478 -2.5577367121028147" fill="#ff4506" stroke="none" /><path d="M 80.0844068197444 106.66101706037122 l -14.58330487255825 4.877567124086966 a36.377367852007545,36.377367852007545 0 0,0 -0.19350637508102955,-0.5955513849253469 l 14.665103498655528 -4.625816839183815" fill="#ffb110" stroke="none" /><path d="M 79.76711848015287 105.62410040840567 l -7.155494555662667 1.9890009148410732 a28.42679116276718,28.42679116276718 0 0,0 -0.1269891410671344,-0.4725738350308327 l 7.188671773071576 -1.8655361466347016" fill="#ff4206" stroke="none" /><path d="M 79.67330655649465 105.27499134158121 l -4.296636691170617 1.115022539540824 a25.43895957625181,25.43895957625181 0 0,0 -0.1063453727095372,-0.42479690086126815 l 4.315193378175213 -1.040897799282164" fill="#ff1602" stroke="none" /><path d="M 79.58551787078972 104.9243191809786 l -4.53636771805827 1.0942487996814356 a25.66647752689815,25.66647752689815 0 0,0 -0.09990301655260851,-0.43037958060377574 l 4.554531300541433 -1.0160005617290857" fill="#ff1902" stroke="none" /><path d="M 79.1416061653843 102.43462659150553 l -14.680893678980462 1.7135784481446794 a35.780561231275165,35.780561231275165 0 0,0 -0.06613900180946625,-0.6123650148355745 l 14.708214982290981 -1.460617111424323" fill="#ffa90f" stroke="none" /><path d="M 79.04373962182676 101.35467743843564 l -13.452287402896953 0.8695974334732444 a34.48036483432267,34.48036483432267 0 0,0 -0.03318923790623295,-0.5926161380847627 l 13.465262991690718 -0.6379095790530442" fill="#ff970d" stroke="none" /><path d="M 79.0095281055655 100.63252640178507 l -8.135360230900094 0.24515075982836879 a29.139053076467512,29.139053076467512 0 0,0 -0.01079246324985738,-0.5014833590508255 l 8.13837475683496 -0.1050775849874144" fill="#ff4c07" stroke="none" /><line stroke="#e1ed5e" stroke-width="0.3" x1="15.007084014347285" x2="10.007500721073583" y1="101.09737516637583" y2="101.16192664675087" /><path d="M 14.007167355692545 101.11028546245083 a86.0,86.0 0 0,1 10.666146001902534,-42.60595125391555" fill="none" id="id106" stroke="none" /><text fill="#e1ed5e" style="font-size:6.75px; font-family:Arial;" text-anchor="middle"><textPath startOffset="22.20632615414155" xlink:href="#id106">October</textPath></text><path d="M 79.00486145842228 99.54816195383935 l -4.484522652105462 -0.09651176862099588 a25.485561050607757,25.485561050607757 0 0,0 0.013214027413729937,-0.43850923891463833 l 4.482196930236087 0.17369115496062865" fill="#ff1702" stroke="none" /><path d="M 79.12142395522702 97.74499172005258 l -7.771334007909651 -0.8393495081509906 a28.816529911624876,28.816529911624876 0 0,0 0.05750907601227237,-0.4927026430722776 l 7.75573457889379 0.97299588954813" fill="#ff4806" stroke="none" /><path d="M 79.21141760316559 97.0276538004421 l -14.805733373290812 -2.1169199748064518 a35.95630605800483,35.95630605800483 0 0,0 0.09287703320664176,-0.6119436047729773 l 14.767100446644868 2.371462691971521" fill="#ffab0f" stroke="none" /><path d="M 79.32604984820605 96.31383870115002 l -17.69134677812547 -3.154363696306084 a38.970357847089865,38.970357847089865 0 0,0 0.12343262577013457,-0.6593820224856899 l 17.634428428445474 3.4584237962543463" fill="#ffd313" stroke="none" /><path d="M 79.46518482838121 95.60439243477599 l -7.2644999936590215 -1.555012346730565 a28.429066129491407,28.429066129491407 0 0,0 0.106548908413392,-0.47763786427582927 l 7.236656698243592 1.6798283805563536" fill="#ff4206" stroke="none" /><path d="M 79.62865764111835 94.90015583598534 l -7.3612372136513455 -1.8428418698485924 a28.58840427711337,28.58840427711337 0 0,0 0.12361580830173753,-0.47634213544838655 l 7.3284250734793 1.9692804308458427" fill="#ff4406" stroke="none" /><path d="M 79.71946130924805 94.55025226153421 l -7.1864741666998775 -1.9311356534811719 a28.441417597527426,28.441417597527426 0 0,0 0.13111930891844606,-0.4717059173314465 l 7.15216808721507 2.054552874231561" fill="#ff4206" stroke="none" /><path d="M 79.91906864156998 93.8553929516997 l -14.570289789851945 -4.4583940724899636 a36.23714613258918,36.23714613258918 0 0,0 0.18764718694330063,-0.5948928618281818 l 14.49138711914044 4.70853710074456" fill="#ffaf10" stroke="none" /><path d="M 80.14247586403 93.16781622104843 l -8.415511323225457 -2.8954425315276424 a29.899686414965142,29.899686414965142 0 0,0 0.1716340515274685,-0.48523257615810156 l 8.36442419088818 3.0398727341123553" fill="#ff5708" stroke="none" /><path d="M 80.38941819471856 92.48833698450439 l -8.290322611518956 -3.175536063427888 a29.87769555082813,29.87769555082813 0 0,0 0.18809638411859897,-0.47868478092845457 l 8.234432677518665 3.317769849252106" fill="#ff5708" stroke="none" /><path d="M 80.803312248108 91.48605970444005 l -16.735982795651577 -7.4225908214635785 a39.30813957340344,39.30813957340344 0 0,0 0.27964499889274574,-0.616160686710878 l 16.60573547979548 7.709573517016528" fill="#ffd714" stroke="none" /><path d="M 81.10775173730289 90.83032412892265 l -7.985942965805422 -3.8761140285212132 a29.876910781076717,29.876910781076717 0 0,0 0.22854412194591456,-0.4607310038916046 l 7.918038830906094 4.013004620911779" fill="#ff5708" stroke="none" /><path d="M 81.43458229118936 90.18545643968196 l -8.140184949429624 -4.303280487856071 a30.207650838736413,30.207650838736413 0 0,0 0.24697185669749422,-0.4576013419359445 l 8.06490499351366 4.442762813124488" fill="#ff5b08" stroke="none" /><line stroke="#e1ed5e" stroke-width="0.3" x1="26.266209847984243" x2="21.928928074336255" y1="57.711370442889674" y2="55.22380399835377" /><path d="M 25.398753493254645 57.213857153982495 a86.0,86.0 0 0,1 29.58750427330803,-30.492523968695096" fill="none" id="id107" stroke="none" /><text fill="#e1ed5e" style="font-size:6.75px; font-family:Arial;" text-anchor="middle"><textPath startOffset="21.46611528233685" xlink:href="#id107">November</textPath></text><path d="M 81.78341655067845 89.55222093294921 l -6.610665907426165 -3.7914231875047735 a28.62074757004557,28.62074757004557 0 0,0 0.24878288468279874,-0.4252505940798353 l 6.544423348273042 3.9046531939385005" fill="#ff4506" stroke="none" /><path d="M 82.7489923806493 88.02491185347247 l -4.893931938205248 -3.397208304364537 a26.957482192925863,26.957482192925863 0 0,0 0.2678898255012048,-0.3789111600537849 l 4.8347294929001645 3.480945964750108" fill="#ff2d04" stroke="none" /><path d="M 82.95767976084542 87.72973835380427 l -4.839115885481512 -3.4841041136348125 a26.962887222459145,26.962887222459145 0 0,0 0.27442747971514064,-0.37431877392365037 l 4.778425793252738 3.5668853312299635" fill="#ff2d04" stroke="none" /><path d="M 83.39014120810768 87.1503855733568 l -11.74271701089021 -9.084326832734797 a35.84642707191854,35.84642707191854 0 0,0 0.3817574828533518,-0.4847932351443927 l 11.584605447442888 9.285112461832238" fill="#ffaa0f" stroke="none" /><path d="M 83.84228863543731 86.58626213691792 l -5.708455992717746 -4.739020927010367 a28.419217557629466,28.419217557629466 0 0,0 0.31570961091406313,-0.37370059938487965 l 5.626035768316559 4.836580476024363" fill="#ff4206" stroke="none" /><path d="M 84.31358615837235 86.03803664274999 l -6.654458978137843 -5.922916056729732 a29.90857782739682,29.90857782739682 0 0,0 0.3455955528546567,-0.38161524121821594 l 6.551519784667141 6.036584085217504" fill="#ff5708" stroke="none" /><path d="M 84.5562425177563 85.77008943001954 l -6.5657433556061235 -6.049689713344609 a29.927918651031355,29.927918651031355 0 0,0 0.3523409274259439,-0.3758527351172751 l 6.460635106209724 6.161811865339935" fill="#ff5808" stroke="none" /><path d="M 85.05521093208273 85.24692304244772 l -15.786998454902958 -15.584482462448069 a43.183449096961,43.183449096961 0 0,0 0.5267644611399321,-0.5245023671386029 l 15.516398193595712 15.853920680236781" fill="#f6ff19" stroke="none" /><path d="M 85.57189188830299 84.74124197986013 l -5.083676625121971 -5.376352247630454 a28.399252091895,28.399252091895 0 0,0 0.3580903838122017,-0.33280598565358727 l 4.9903783575149125 5.463062819358688" fill="#ff4206" stroke="none" /><path d="M 86.10567301691215 84.25364557470407 l -5.878756805970366 -6.662358555373351 a29.885201354167467,29.885201354167467 0 0,0 0.38865875326252275,-0.33704104092230586 l 5.76320425406107 6.762564589715337" fill="#ff5708" stroke="none" /><path d="M 86.37877921826538 84.01681056812374 l -4.799402643284349 -5.631636314883419 a28.399296812230098,28.399296812230098 0 0,0 0.3747929079605112,-0.31387828194991424 l 4.701752198364727 5.713415754227145" fill="#ff4206" stroke="none" /><path d="M 86.65592168130627 83.78471172551755 l -7.524984273427895 -9.144115190304493 a32.84230682463913,32.84230682463913 0 0,0 0.4396124205575225,-0.355469337762904 l 7.366468454305872 9.272290625331532" fill="#ff810b" stroke="none" /><path d="M 86.93701828274178 83.55741782278169 l -14.717734744307442 -18.525446045450703 a44.66017470744245,44.66017470744245 0 0,0 0.6060331367863581,-0.47301847600008007 l 14.39666905236166 18.776042910674004" fill="#e3ff1b" stroke="none" /><path d="M 87.51073957382395 83.11751280151077 l -5.366535821159986 -7.254270405882424 a30.02353289135995,30.02353289135995 0 0,0 0.4181201339849764,-0.3037820591553858 l 5.240870370821228 7.345571699854478" fill="#ff5908" stroke="none" /><path d="M 88.09926311788651 82.69761687909137 l -8.38346718431726 -12.188653739806217 a35.793437802600735,35.793437802600735 0 0,0 0.5106450446052708,-0.3447898135878458 l 8.17241744530545 12.331155465692728" fill="#ffa90f" stroke="none" /><path d="M 88.39885842347998 82.49532879139004 l -4.8569741317870445 -7.32856630400327 a29.791932767544385,29.791932767544385 0 0,0 0.4299018092468347,-0.27962009523094283 l 4.730105296755923 7.411085323393748" fill="#ff5607" stroke="none" /><path d="M 88.70189139769569 82.29822771554957 l -16.98815609745813 -26.61688618469893 a52.57619479545977,52.57619479545977 0 0,0 0.7670637679273843,-0.48033526110556485 l 16.5274731771585 26.905365787127426" fill="#87ff25" stroke="none" /><path d="M 89.00827224532344 82.1063720568725 l -5.412376757730473 -8.810903813520591 a31.34049554802538,31.34049554802538 0 0,0 0.46210506120026396,-0.2784131288443421 l 5.25990963031256 8.902763551823552" fill="#ff6c09" stroke="none" /><line stroke="#e1ed5e" stroke-width="0.3" x1="56.762969772571076" x2="54.21961505331055" y1="26.818313649435495" y2="22.513508569990535" /><path d="M 56.25429882871897 25.957352633546506 a86.0,86.0 0 0,1 42.265352541879196,-11.944610805530505" fill="none" id="id108" stroke="none" /><text fill="#e1ed5e" style="font-size:6.75px; font-family:Arial;" text-anchor="middle"><textPath startOffset="22.20632615414155" xlink:href="#id108">December</textPath></text><path d="M 89.63071344664047 81.73862282372117 l -4.884230250360547 -8.601630436061903 a30.891600037260076,30.891600037260076 0 0,0 0.4646624905615027,-0.2585841729180738 l 4.7354436707269985 8.684430006540161" fill="#ff6509" stroke="none" /><path d="M 90.26544431104013 81.39251694778311 l -5.697473147408042 -10.890649601099938 a33.29094988189985,33.29094988189985 0 0,0 0.5100482848909219,-0.2612665419039937 l 5.509164374928356 10.987108668316436" fill="#ff870c" stroke="none" /><path d="M 90.58718382345135 81.22770947309562 l -4.640402600485657 -9.254508336745193 a31.3527417068852,31.3527417068852 0 0,0 0.4845174067564204,-0.2377505872593801 l 4.480413926718811 9.333014084139402" fill="#ff6c09" stroke="none" /><path d="M 90.91171255644093 81.06846463323043 l -16.253755463792398 -33.85770403022244 a58.55700585609697,58.55700585609697 0 0,0 0.9124346760557787,-0.42840031482145885 l 15.668542576437012 34.13246932768391" fill="#47ff2c" stroke="none" /><path d="M 91.23893434514133 80.91482961587045 l -3.167262655952783 -6.899588454359626 a28.591829395562424,28.591829395562424 0 0,0 0.4490522190668479,-0.20147664113729144 l 3.0480283184191608 6.9530854260134465" fill="#ff4406" stroke="none" /><path d="M 91.90106846888425 80.62456947434976 l -2.8565413495929506 -6.833829653954426 a28.406824975736985,28.406824975736985 0 0,0 0.45277250157899196,-0.184697271834541 l 2.7384849784255785 6.881987811972544" fill="#ff4206" stroke="none" /><path d="M 92.91201910852362 80.23233633223022 l -2.0048797438715042 -5.591407352527621 a26.939981394691923,26.939981394691923 0 0,0 0.4378619266766013,-0.15276142857316455 l 1.9083358131316175 5.625089634272995" fill="#ff2c04" stroke="none" /><path d="M 93.59665428221793 80.00007090966166 l -4.517049070043395 -14.108352895513798 a35.81382306244855,35.81382306244855 0 0,0 0.588735980014623,-0.18292313481044467 l 4.273527717318043 14.184016165206769" fill="#ffa90f" stroke="none" /><path d="M 94.28887869178378 79.79150937346287 l -2.0146432670739642 -7.128705096827354 a28.407916296172544,28.407916296172544 0 0,0 0.4717095416776751,-0.12893603667167827 l 1.8916358361725667 7.162327674325328" fill="#ff4206" stroke="none" /><path d="M 94.98787191387505 79.60689891045804 l -1.76647768951656 -7.187357839967553 a28.40125368753854,28.40125368753854 0 0,0 0.4757565860878115,-0.11259621284817836 l 1.6424974164662145 7.216699964956603" fill="#ff4206" stroke="none" /><path d="M 96.04723909329186 79.375362276772 l -11.858282720124423 -61.87391316968403 a84.0,84.0 0 0,0 1.4224195155884267,-0.2599380745970552 l 10.791468083433102 62.06886672563182" fill="#4dd2ff" stroke="none" /><path d="M 97.83486435360386 79.11191278185805 l -0.4582530292774135 -4.420983627264627 a25.444670074525646,25.444670074525646 0 0,0 0.4360427337762278,-0.04140751165656164 l 0.3820851684109494 4.428216683436369" fill="#ff1602" stroke="none" /></svg>