<?xml version="1.0" encoding="utf-8" ?>
<svg baseProfile="full" height="200mm" version="1.1" viewBox="0,0,200,200" width="200mm" xmlns="http://www.w3.org/2000/svg" xmlns:ev="http://www.w3.org/2001/xml-events" xmlns:xlink="http://www.w3.org/1999/xlink"><defs /><rect fill="#1a1a1a" height="200" width="200" x="0" y="0" /><text alignment-baseline="middle" fill="#e1ed5e" style="dominant-baseline: central; font-size:9.0px; font-family:Arial;" text-anchor="middle" x="100.0" y="100.0">2020</text><line stroke="#e1ed5e" stroke-width="0.3" x1="100.0" x2="100.0" y1="15.0" y2="10.0" /><path d="M 100.0 14.0 a86.0,86.0 0 0,1 42.35913384403234,11.155469271406648" fill="none" id="id37" stroke="none" /><text fill="#e1ed5e" style="font-size:6.75px; font-family:Arial;" text-anchor="middle"><textPath startOffset="22.145653131862478" xlink:href="#id37">January</textPath></text><path d="M 104.64783097203109 79.52079915486377 l 0.7453895405872382 -3.2843238494275844 a24.367846302184184,24.367846302184184 0 0,0 0.4071377976211844,0.09608341165985076 l -0.8016594919483075 3.271044294121506" fill="red" stroke="none" /><line stroke="#e1ed5e" stroke-width="0.3" x1="143.13028292997686" x2="145.6673583964461" y1="26.7553504044142" y2="22.446841604673864" /><path d="M 143.63769802327073 25.89364864446614 a86.0,86.0 0 0,1 29.32050498858742,28.57503671076993" fill="none" id="id38" stroke="none" /><text fill="#e1ed5e" style="font-size:6.75px; font-family:Arial;" text-anchor="middle"><textPath startOffset="20.669276256404974" xlink:href="#id38">February</textPath></text><line stroke="#e1ed5e" stroke-width="0.3" x1="172.87174338648825" x2="177.1583165268699" y1="56.24261187166439" y2="53.66864786411523" /><path d="M 173.72905801456457 55.72781907015455 a86.0,86.0 0 0,1 12.242430191666344,42.057860355516425" fill="none" id="id39" stroke="none" /><text fill="#e1ed5e" style="font-size:6.75px; font-family:Arial;" text-anchor="middle"><textPath startOffset="22.145653131862474" xlink:href="#id39">March</textPath></text><line stroke="#e1ed5e" stroke-width="0.3" x1="184.99686870605535" x2="189.99668451229388" y1="99.2704041080226" y2="99.22748670261217" /><path d="M 185.99683186730306 99.26182062694052 a86.0,86.0 0 0,1 -10.086455211305974,41.156179273409016" fill="none" id="id40" stroke="none" /><text fill="#e1ed5e" style="font-size:6.75px; font-family:Arial;" text-anchor="middle"><textPath startOffset="21.40746469413373" xlink:href="#id40">April</textPath></text><path d="M 120.86939407059847 102.33845913500097 l 4.349008878966311 0.4873155160526183 a25.376226072943837,25.376226072943837 0 0,0 -0.05222416902265528,0.43249103653941234 l -4.340002623683992 -0.5619002295154393" fill="red" stroke="none" /><path d="M 120.82617615685814 102.69636545807757 l 12.07949644425609 1.5639326546528478 a33.180316896332585,33.180316896332585 0 0,0 -0.07798240863189629,0.5642418619669824 l -12.050869519068984 -1.7710628248199154" fill="red" stroke="none" /><line stroke="#e1ed5e" stroke-width="0.3" x1="174.33088141563837" x2="178.70328620479359" y1="141.23008692659167" y2="143.65538615756765" /><path d="M 175.20536237346943 141.71514677278685 a86.0,86.0 0 0,1 -30.301960400862466,31.631185727798858" fill="none" id="id41" stroke="none" /><text fill="#e1ed5e" style="font-size:6.75px; font-family:Arial;" text-anchor="middle"><textPath startOffset="22.145653131862474" xlink:href="#id41">May</textPath></text><line stroke="#e1ed5e" stroke-width="0.3" x1="143.1302829299769" x2="145.66735839644613" y1="173.24464959558577" y2="177.55315839532614" /><path d="M 143.63769802327073 174.10635135553383 a86.0,86.0 0 0,1 -40.68552437913181,11.842963189579606" fill="none" id="id42" stroke="none" /><text fill="#e1ed5e" style="font-size:6.75px; font-family:Arial;" text-anchor="middle"><textPath startOffset="21.407464694133747" xlink:href="#id42">June</textPath></text><line stroke="#e1ed5e" stroke-width="0.3" x1="101.45913802915013" x2="101.54496967792366" y1="184.9874750549273" y2="189.98673829345242" /><path d="M 101.47630435890484 185.9873277026323 a86.0,86.0 0 0,1 -42.54439059252881,-10.42667462771756" fill="none" id="id43" stroke="none" /><text fill="#e1ed5e" style="font-size:6.75px; font-family:Arial;" text-anchor="middle"><textPath startOffset="22.145653131862474" xlink:href="#id43">July</textPath></text><line stroke="#e1ed5e" stroke-width="0.3" x1="58.13341422392154" x2="55.67067388415222" y1="173.97424548756322" y2="178.32567169271397" /><path d="M 57.64086615596768 174.84453072859336 a86.0,86.0 0 0,1 -31.369924170532247,-30.572349798747897" fill="none" id="id44" stroke="none" /><text fill="#e1ed5e" style="font-size:6.75px; font-family:Arial;" text-anchor="middle"><textPath startOffset="22.145653131862474" xlink:href="#id44">August</textPath></text><line stroke="#e1ed5e" stroke-width="0.3" x1="26.387840678322732" x2="22.057713659400534" y1="142.50000000000003" y2="145.00000000000006" /><path d="M 25.521815274538284 143.00000000000003 a86.0,86.0 0 0,1 -11.493303480769212,-40.785679425670985" fill="none" id="id45" stroke="none" /><text fill="#e1ed5e" style="font-size:6.75px; font-family:Arial;" text-anchor="middle"><textPath startOffset="21.40746469413373" xlink:href="#id45">September</textPath></text><path d="M 80.05021161711548 106.5578916946017 l -9.850106792847553 3.2379257507900845 a31.36864345023644,31.36864345023644 0 0,0 -0.16376714954041074,-0.5129982634240428 l 9.904238658165218 -3.06835845367465" fill="red" stroke="none" /><path d="M 79.94057633289273 106.21446072829308 l -17.87380009051189 5.537348957337495 a39.71189362814222,39.71189362814222 0 0,0 -0.19614589270168198,-0.6529058838096505 l 17.9662223032172 -5.229705469937121" fill="red" stroke="none" /><path d="M 79.83685265289637 105.86919833188381 l -17.954166747334096 5.226196273319103 a39.69933771763941,39.69933771763941 0 0,0 -0.18485052884149902,-0.6559693149676099 l 18.041235768250168 -4.917219034448498" fill="red" stroke="none" /><path d="M 79.73907114497094 105.5222062557868 l -18.789921604738097 5.121276688441315 a40.47533385674751,40.47533385674751 0 0,0 -0.17695530552332256,-0.6719281178324639 l 18.875066391066152 -4.797968066236049" fill="red" stroke="none" /><path d="M 79.56144815229197 104.8234425847677 l -23.48524499837675 5.542453872610171 a45.130385980414644,45.130385980414644 0 0,0 -0.17147212452129787,-0.7555378193711098 l 23.576927984455715 -5.138481719300034" fill="red" stroke="none" /><path d="M 79.407916724674 104.11899336999214 l -24.312269905281262 4.8631348858862635 a45.79388127876652,45.79388127876652 0 0,0 -0.14757341604404056,-0.7721664713323878 l 24.392169613607457 -4.445065849520561" fill="red" stroke="none" /><path d="M 79.34024301695615 103.76489593502545 l -26.37159547990216 4.805783180504345 a47.80590606813384,47.80590606813384 0 0,0 -0.1401969261978631,-0.8086186144259454 l 26.45020722359226 -4.352371533157807" fill="red" stroke="none" /><path d="M 79.2786578344484 103.40968896794605 l -26.01994225620971 4.281571596510031 a47.369854955090844,47.369854955090844 0 0,0 -0.1251432795492921,-0.8035096264379249 l 26.08960702789727 -3.834273788140656" fill="red" stroke="none" /><path d="M 79.17382384314188 102.69636545807758 l -31.484683164453315 4.076322580955062 a52.74746729662091,52.74746729662091 0 0,0 -0.10855407103079513,-0.8989834319874683 l 31.550019321743772 -3.5352454720441946" fill="red" stroke="none" /><path d="M 79.13060592940153 102.33845913500099 l -14.671903538592613 1.6440173941615177 a35.76372400981785,35.76372400981785 0 0,0 -0.06312741357094971,-0.6107004617258108 l 14.697963344645228 -1.3919124101527756" fill="red" stroke="none" /><path d="M 79.06263194458094 101.62068470465958 l -33.050025530332434 2.558280999017675 a54.14889122166171,54.14889122166171 0 0,0 -0.06378233695845886,-0.9273811810772279 l 33.08907182845596 -1.9905563937861042" fill="red" stroke="none" /><path d="M 79.03789590574601 101.26102812881392 l -30.679199099326855 1.8455844346435877 a51.734661854029504,51.734661854029504 0 0,0 -0.04571967114345089,-0.8869494060746428 l 30.706360359926876 -1.318663235192214" fill="red" stroke="none" /><path d="M 79.01933749520258 100.90099992219065 l -33.36950555075996 1.4330301484950871 a54.40026161736904,54.40026161736904 0 0,0 -0.03205810785563288,-0.9333368317529059 l 33.38918834561244 -0.8599870521780614" fill="red" stroke="none" /><line stroke="#e1ed5e" stroke-width="0.3" x1="15.003131293944662" x2="10.003315487706104" y1="100.72959589197737" y2="100.7725132973878" /><path d="M 14.003168132696942 100.73817937305945 a86.0,86.0 0 0,1 10.791469493833604,-42.45332614584628" fill="none" id="id46" stroke="none" /><text fill="#e1ed5e" style="font-size:6.75px; font-family:Arial;" text-anchor="middle"><textPath startOffset="22.145653131862435" xlink:href="#id46">October</textPath></text><path d="M 79.00077361379809 99.81974689727619 l -17.068184333033013 -0.14650983456765546 a38.068813126811676,38.068813126811676 0 0,0 0.011218640666327363,-0.6534295760455757 l 17.06315426076802 0.4394863265822836" fill="red" stroke="none" /><path d="M 80.5471966667186 92.08871423366112 l -19.8808631220369 -8.08537395588683 a42.462105919124056,42.462105919124056 0 0,0 0.2803998417874821,-0.6728575443117224 l 19.73913743571294 8.425464009639816" fill="red" stroke="none" /><path d="M 80.83023694016515 91.42560881287825 l -34.810137044081785 -15.570131532749695 a59.1336418005792,59.1336418005792 0 0,0 0.42242690094208885,-0.9230790144762343 l 34.537725678284644 16.1653995294406" fill="red" stroke="none" /><path d="M 80.9802524753101 91.09779779509293 l -30.575268624624155 -14.310769552141723 a54.75863114290082,54.75863114290082 0 0,0 0.4057894672170515,-0.8479439167476529 l 30.3250998994472 14.833525970954463" fill="red" stroke="none" /><path d="M 81.29705330413844 90.45014215332179 l -29.65325216117147 -15.141161841280976 a54.29519703557682,54.29519703557682 0 0,0 0.43097958282126403,-0.8264601768478227 l 29.388964509375267 15.647968261233284" fill="red" stroke="none" /><line stroke="#e1ed5e" stroke-width="0.3" x1="26.387840678322718" x2="22.05771365940052" y1="57.49999999999999" y2="54.99999999999999" /><path d="M 25.521815274538284 56.99999999999999 a86.0,86.0 0 0,1 29.574782752854787,-30.34633250058573" fill="none" id="id47" stroke="none" /><text fill="#e1ed5e" style="font-size:6.75px; font-family:Arial;" text-anchor="middle"><textPath startOffset="21.40746469413373" xlink:href="#id47">November</textPath></text><path d="M 82.37810715431573 88.57770195909679 l -26.17915390443083 -16.969011273287684 a52.19768329130932,52.19768329130932 0 0,0 0.4938287626161413,-0.7477196875290871 l 25.88400070289396 17.41591083915583" fill="red" stroke="none" /><path d="M 82.98947788004972 87.6856937992154 l -27.13154519845383 -19.641146398577682 a54.494706696821574,54.494706696821574 0 0,0 0.5550622717058229,-0.7530485743648305 l 26.790380907164188 20.104001282211375" fill="red" stroke="none" /><path d="M 83.42222388311158 87.10902102172516 l -29.36548634301106 -22.834779795881644 a58.19891068953463,58.19891068953463 0 0,0 0.6200500010163121,-0.7834129208486671 l 28.969169911353184 23.335512660644994" fill="red" stroke="none" /><path d="M 84.34580500576568 86.00192230759919 l -7.670296126948944 -6.858826094110765 a31.289651989467025,31.289651989467025 0 0,0 0.361473405357266,-0.39732259330802067 l 7.551425020749813 6.989486262976444" fill="red" stroke="none" /><path d="M 84.58840730492382 85.73525988315684 l -37.527574939655146 -34.734963109981855 a72.13547245409231,72.13547245409231 0 0,0 0.8489457713193709,-0.901550989834 l 36.925773334599505 35.374055559760365" fill="red" stroke="none" /><path d="M 85.86807049272753 84.46653392183569 l -16.881095481266108 -18.555281066577425 a46.08525144596541,46.08525144596541 0 0,0 0.5897485148175597,-0.5273567585196642 l 16.560081939625157 18.842333354980493" fill="red" stroke="none" /><path d="M 86.68645165197937 83.75963576809568 l -39.19760702634577 -47.81470713039099 a82.82797598625476,82.82797598625476 0 0,0 1.1073281167226308,-0.8919851471871855 l 38.3710281392679 48.48054057137158" fill="red" stroke="none" /><path d="M 87.54013794807813 83.0958041407739 l -25.909856452083922 -35.151696409263444 a64.66878086020515,64.66878086020515 0 0,0 0.8992624784354472,-0.6509966852424232 l 25.302612963274505 35.591293865878946" fill="red" stroke="none" /><path d="M 88.72937992617638 82.28071324371311 l -33.318213101472125 -52.381765003615406 a83.08021125261331,83.08021125261331 0 0,0 1.209948037560899,-0.7550970628079472 l 32.41410093512153 52.945997863264886" fill="red" stroke="none" /><line stroke="#e1ed5e" stroke-width="0.3" x1="56.869717070023135" x2="54.33264160355391" y1="26.7553504044142" y2="22.446841604673864" /><path d="M 56.362301976729285 25.89364864446614 a86.0,86.0 0 0,1 42.16139366436587,-11.88097634709845" fill="none" id="id48" stroke="none" /><text fill="#e1ed5e" style="font-size:6.75px; font-family:Arial;" text-anchor="middle"><textPath startOffset="22.145653131862474" xlink:href="#id48">December</textPath></text><path d="M 89.65649057296885 81.72400993836675 l -25.037520905004413 -44.23890039022607 a71.83264463713134,71.83264463713134 0 0,0 1.0783647000939534,-0.5981507211629531 l 24.274412016754358 44.66218402682217" fill="red" stroke="none" /><path d="M 91.26138138417902 80.90454125486306 l -18.360499971657287 -40.12100598075264 a65.12259149366474,65.12259149366474 0 0,0 1.020522477708274,-0.4564667237570402 l 17.669064091093393 40.43027645541952" fill="red" stroke="none" /><path d="M 92.93061703081487 80.22567764915836 l -21.208148907555373 -59.32296705252492 a84.0,84.0 0 0,0 1.3619769118199827,-0.47376626972565683 l 20.186666223690388 59.67829175481917" fill="red" stroke="none" /><path d="M 95.35216902796891 79.52079915486377 l -13.746534916288578 -60.56976924707934 a83.11009715697746,83.11009715697746 0 0,0 1.3940237989106676,-0.30382099871935775 l 12.704748700758792 60.796821703932416" fill="red" stroke="none" /><path d="M 97.84075906011542 79.11130261209362 l -2.3226453016424906 -22.469486359426845 a43.58921199275687,43.58921199275687 0 0,0 0.7449612959954075,-0.07054860926410474 l 1.9365844422620677 22.506046724196132" fill="red" stroke="none" /></svg>