<?xml version="1.0" encoding="utf-8" ?>
<svg baseProfile="full" height="200mm" version="1.1" viewBox="0,0,200,200" width="200mm" xmlns="http://www.w3.org/2000/svg" xmlns:ev="http://www.w3.org/2001/xml-events" xmlns:xlink="http://www.w3.org/1999/xlink"><defs /><rect fill="#1a1a1a" height="200" width="200" x="0" y="0" /><text alignment-baseline="middle" fill="#e1ed5e" style="dominant-baseline: central; font-size:9.0px; font-family:Arial;" text-anchor="middle" x="100.0" y="100.0">2025</text><line stroke="#e1ed5e" stroke-width="0.3" x1="100.0" x2="100.0" y1="15.0" y2="10.0" /><path d="M 100.0 14.0 a86.0,86.0 0 0,1 42.46469731375804,11.215312516191453" fill="none" id="id97" stroke="none" /><text fill="#e1ed5e" style="font-size:6.75px; font-family:Arial;" text-anchor="middle"><textPath startOffset="22.20632615414155" xlink:href="#id97">January</textPath></text><path d="M 100.0 79.0 l 0.0 -39.81882042204078 a60.81882042204078,60.81882042204078 0 0,0 1.0468960169023398,0.009010964534346673 l -0.6854155376298116 39.81292083411499" fill="#3cff2e" stroke="none" /><path d="M 101.44485096284872 79.0497635885617 l 2.045343200432766 -29.65733123581752 a50.72777699120057,50.72777699120057 0 0,0 0.8706089761651421,0.06757601243289896 l -2.555542365960249 29.617729961196154" fill="#afff20" stroke="none" /><path d="M 105.36241919743992 79.69619591428918 l 8.509616761472657 -32.22008299013767 a54.32487547341318,54.32487547341318 0 0,0 0.9020570831065827,0.24656627621675475 l -9.06297173380295 32.06883017309462" fill="#84ff25" stroke="none" /><path d="M 108.76106565485865 80.91482961587045 l 12.448686731614153 -27.118311480721594 a50.83911223390037,50.83911223390037 0 0,0 0.7921745352913034,0.37193656622010113 l -12.913639478205054 26.90000993186149" fill="#adff20" stroke="none" /><path d="M 109.08828744355905 81.06846463323043 l 9.181334758351163 -19.12535940036328 a42.21500129950435,42.21500129950435 0 0,0 0.6523800421371962,0.3201200534213062 l -9.509186067498792 18.96448418680714" fill="#ffe215" stroke="none" /><path d="M 109.41281617654863 81.2277094730956 l 10.851279409280222 -21.641065313390122 a45.20921255879022,45.20921255879022 0 0,0 0.6926471431029273,0.3548007692583144 l -11.222187039971905 21.45107201881931" fill="#f4ff19" stroke="none" /><path d="M 110.05341064243156 81.56283822128135 l 10.203591066814264 -18.712580825927777 a42.313703381290914,42.313703381290914 0 0,0 0.6364704571571893,0.35419512031603306 l -10.524185613043487 18.534170308051564" fill="#ffe315" stroke="none" /><line stroke="#e1ed5e" stroke-width="0.3" x1="143.23703022742887" x2="145.7803849466894" y1="26.81831364943548" y2="22.513508569990506" /><path d="M 143.74570117128098 25.957352633546492 a86.0,86.0 0 0,1 28.547481713284135,27.462654790039103" fill="none" id="id98" stroke="none" /><text fill="#e1ed5e" style="font-size:6.75px; font-family:Arial;" text-anchor="middle"><textPath startOffset="19.985693538727396" xlink:href="#id98">February</textPath></text><path d="M 110.68208982089419 81.91981866633111 l 15.08831704718946 -25.538027933398983 a50.662234946874364,50.662234946874364 0 0,0 0.7469976071307988,0.45005770008303225 l -15.525676720537895 25.274523623857334" fill="#b0ff20" stroke="none" /><path d="M 111.90073688211348 82.69761687909136 l 16.738474009433556 -24.335929198289936 a50.53665455173729,50.53665455173729 0 0,0 0.7124918915422648,0.4991461023825362 l -17.154897040559472 24.044198253143463" fill="#b1ff20" stroke="none" /><path d="M 112.19680574252982 82.90503203632743 l 12.411829124317581 -17.396343413991087 a42.37021914695236,42.37021914695236 0 0,0 0.590065192221076,0.4287074564442672 l -12.709439632892447 17.180116722730144" fill="#ffe415" stroke="none" /><path d="M 114.16331599549186 84.49514656593476 l 12.094051783250093 -13.239590247296185 a38.93189444682951,38.93189444682951 0 0,0 0.49089803421198275,0.45623622279956727 l -12.320157701256923 13.029449438421977" fill="#ffb510" stroke="none" /><path d="M 114.94478906791727 85.2469230424477 l 10.953721029781384 -10.813206435334774 a36.391862714156474,36.391862714156474 0 0,0 0.4362443978839787,0.4495881989846183 l -11.138229691368473 10.623054040800042" fill="#ff910d" stroke="none" /><path d="M 115.68641384162765 86.03803664274999 l 47.05924152488298 -41.88589007175005 a84.0,84.0 0 0,0 0.9520325456886072,1.0883377751882088 l -47.773265934149435 41.069636740358895" fill="#4dd2ff" stroke="none" /><path d="M 116.38621287248628 86.86637796730983 l 23.316501482392034 -18.688278980470287 a50.88161663348015,50.88161663348015 0 0,0 0.5418793301361962,0.6881317205654267 l -23.634734893122193 18.28415486595182" fill="#adff20" stroke="none" /><path d="M 117.04232023915458 87.72973835380427 l 15.505906138104248 -11.16406232871786 a40.1067897053167,40.1067897053167 0 0,0 0.3985609938894829,0.5637362608464352 l -15.695779751797613 10.895499567539632" fill="#ffc512" stroke="none" /><line stroke="#e1ed5e" stroke-width="0.3" x1="172.23445277983987" x2="176.4835382374775" y1="55.19839476539836" y2="52.563006222186495" /><path d="M 173.08426987136738 54.67131705675599 a86.0,86.0 0 0,1 12.851231095245387,41.99856678651699" fill="none" id="id99" stroke="none" /><text fill="#e1ed5e" style="font-size:6.75px; font-family:Arial;" text-anchor="middle"><textPath startOffset="22.20632615414155" xlink:href="#id99">March</textPath></text><path d="M 118.03404312379186 89.2402003453031 l 25.596588998591006 -15.271903675616198 a50.80631493895362,50.80631493895362 0 0,0 0.4416286318056984,0.754886487780256 l -25.855677304867033 14.829037775482046" fill="#aeff20" stroke="none" /><path d="M 119.47837535516314 92.15188598940014 l 16.537442185102535 -6.66317027708296 a38.82932506201541,38.82932506201541 0 0,0 0.24445177271136093,0.6221030979209592 l -16.649687507695596 6.377518174266217" fill="#ffb310" stroke="none" /><path d="M 119.61058180528143 92.48833698450437 l 13.637042220442066 -5.223550565973484 a35.60323255438334,35.60323255438334 0 0,0 0.21428977282779113,0.5741900530063652 l -13.724936581771482 4.988037375937786" fill="#ff850c" stroke="none" /><path d="M 119.97218684219823 93.5106431181261 l 14.085502985186524 -4.576657351234501 a35.810374298318976,35.810374298318976 0 0,0 0.18543722995953144,0.5878866942644335 l -14.162195698914262 4.333520490543648" fill="#ff880c" stroke="none" /><path d="M 120.53481517161879 95.60439243477599 l 8.759431505912929 -1.875011928408666 a29.95786302856071,29.95786302856071 0 0,0 0.10359814790553151,0.5051813613207355 l -8.790408949733457 1.7239549109245187" fill="#ff3104" stroke="none" /><path d="M 120.78858239683441 97.02765380044208 l 17.9629354920911 -2.568335927078472 a39.145616576114136,39.145616576114136 0 0,0 0.08963227925368834,0.6678645908471966 l -18.004483770402622 2.258752994166611" fill="#ffb811" stroke="none" /><path d="M 120.83666639777658 97.38593545837742 l 15.165463119630807 -1.9025835823019197 a36.28434152721428,36.28434152721428 0 0,0 0.07241256880489381,0.620386667909803 l -15.19596604143929 1.641253176067264" fill="#ff8f0d" stroke="none" /><path d="M 120.91429891909075 98.10471618934814 l 33.36818549511831 -3.0238729017111865 a54.50491919945976,54.50491919945976 0 0,0 0.07663266065432288,0.9351125633943064 l -33.41529263959213 2.449046421109111" fill="#82ff25" stroke="none" /><path d="M 120.96714384426684 98.82574320788733 l 46.449386486478716 -2.601379948377095 a67.52217409586626,67.52217409586626 0 0,0 0.05500289347666401,1.1610241486993096 l -46.48728298818887 1.801444693054786" fill="#37ff76" stroke="none" /><line stroke="#e1ed5e" stroke-width="0.3" x1="184.98032266829074" x2="189.97916517819016" y1="98.17113171792111" y2="98.06355123074" /><path d="M 185.9800911702706 98.14961562048488 a86.0,86.0 0 0,1 -9.607161424134198,41.387399972396054" fill="none" id="id100" stroke="none" /><text fill="#e1ed5e" style="font-size:6.75px; font-family:Arial;" text-anchor="middle"><textPath startOffset="21.466115282336823" xlink:href="#id100">April</textPath></text><path d="M 120.99824983174949 100.27111621757518 l 15.017469993097144 0.19389614347388306 a36.01872167356554,36.01872167356554 0 0,0 -0.013340540921102671,0.619882515954662 l -15.011907389491034 -0.45236847521865997" fill="#ff8b0c" stroke="none" /><path d="M 120.41448212921028 104.9243191809786 l 14.8150882867248 3.573650458358823 a36.240007170010735,36.240007170010735 0 0,0 -0.1514982190187054,0.6051600768838823 l -14.751378753411034 -3.828138374640101" fill="#ff8f0d" stroke="none" /><path d="M 120.13307415673323 105.97154293290107 l 28.414412033225975 8.427817830929882 a50.637930504427544,50.637930504427544 0 0,0 -0.255054159193498,0.8335317495792384 l -28.265131101526347 -8.915676553061177" fill="#b0ff20" stroke="none" /><path d="M 120.02730092923936 106.31721596034902 l 22.16622672140727 6.991897795910696 a44.2428105411822,44.2428105411822 0 0,0 -0.23534594163191064,0.7243203301015446 l -22.04258852875911 -7.372417025990036" fill="#fffd17" stroke="none" /><path d="M 119.79798401119884 107.00284435728193 l 8.683130538362887 3.071353712565952 a30.210318646710483,30.210318646710483 0 0,0 -0.17763054381762644,0.4887629673031734 l -8.628975733540035 -3.2203644768752566" fill="#ff3505" stroke="none" /><path d="M 119.41010516605496 108.01547362559984 l 16.989782962203133 7.015992755998189 a39.38142756847212,39.38142756847212 0 0,0 -0.2641350205840692,0.6243371644370098 l -16.866496960426755 -7.307404446101363" fill="#ffbb11" stroke="none" /><path d="M 119.12269723197855 108.67885076344098 l 27.038664276395185 12.27151846054392 a50.69308894640434,50.69308894640434 0 0,0 -0.3674654708780433,0.7914879330083481 l -26.82342418867731 -12.735126460831099" fill="#afff20" stroke="none" /><line stroke="#e1ed5e" stroke-width="0.3" x1="174.80103733775053" x2="179.2010983576182" y1="140.37084112569926" y2="142.7455964860345" /><path d="M 175.68104954172406 140.8457921977663 a86.0,86.0 0 0,1 -30.038265399797805,32.042727171017184" fill="none" id="id101" stroke="none" /><text fill="#e1ed5e" style="font-size:6.75px; font-family:Arial;" text-anchor="middle"><textPath startOffset="22.206326154141568" xlink:href="#id101">May</textPath></text><path d="M 118.48025628344425 109.97397251340804 l 26.484215357885823 14.293786404649424 a51.095281904388536,51.095281904388536 0 0,0 -0.4243915490405123,0.7703939343668835 l -26.2342473993938 -14.747550857414112" fill="#aaff21" stroke="none" /><path d="M 115.56566222782051 114.09645910891815 l 22.01978329851982 19.941392168978446 a50.70740611616516,50.70740611616516 0 0,0 -0.5914743461606835,0.6419285851553157 l -21.673262544363414 -20.317472008935095" fill="#afff20" stroke="none" /><path d="M 114.81725581225074 114.88116024355365 l 20.473629812383784 20.56192927123399 a50.016589273202996,50.016589273202996 0 0,0 -0.6153232486063016,0.6022233071377794 l -20.11665661140169 -20.91130268129434" fill="#b7ff1f" stroke="none" /><path d="M 114.29624159901734 115.38237550388516 l 19.975768358900602 21.493395151936824 a50.342756460253625,50.342756460253625 0 0,0 -0.639833541920078,0.5844727702371364 l -19.60283526751366 -21.834060688760545" fill="#b3ff20" stroke="none" /><path d="M 113.20401910651253 116.32954008644616 l 28.169709766753545 34.837756682196414 a65.80180620232906,65.80180620232906 0 0,0 -0.8868908672016274,0.7045997434338552 l -27.565861406834568 -35.31749033963539" fill="#34ff61" stroke="none" /><path d="M 112.34349029814194 116.9893568818739 l 8.862499830334318 12.198184536650995 a36.07778528938741,36.07778528938741 0 0,0 -0.5055574420191541,0.36070181149805236 l -8.65121506046628 -12.348930609993268" fill="#ff8c0c" stroke="none" /><path d="M 111.7513745106137 117.40417183066458 l 9.87563299379032 14.626137002549761 a38.64800302145813,38.64800302145813 0 0,0 -0.5545533882637927,0.367527746869233 l -9.622404906786564 -14.793962770510314" fill="#ffb110" stroke="none" /><line stroke="#e1ed5e" stroke-width="0.3" x1="143.8653032363475" x2="146.44561519142675" y1="172.8068346515853" y2="177.08958963109032" /><path d="M 144.38136562736335 173.6633856474863 a86.0,86.0 0 0,1 -40.68145358897372,12.25698825130547" fill="none" id="id102" stroke="none" /><text fill="#e1ed5e" style="font-size:6.75px; font-family:Arial;" text-anchor="middle"><textPath startOffset="21.466115282336833" xlink:href="#id102">June</textPath></text><path d="M 110.8373102113329 117.98757091392108 l 24.5272565105578 40.70989546338069 a68.52769614208208,68.52769614208208 0 0,0 -1.0156200363723968,0.6000462192393412 l -23.822868603157023 -41.12606025491378" fill="#38ff82" stroke="none" /><path d="M 110.21172684928248 118.3499491758327 l 9.389325562911273 16.8721362623281 a40.308765278518095,40.308765278518095 0 0,0 -0.6091944086258437,0.33218136416517785 l -9.09750834241678 -17.03125827825305" fill="#ffc812" stroke="none" /><path d="M 109.57404056367764 118.69057910512821 l 6.655631633277515 12.993219394569053 a35.598670578970186,35.598670578970186 0 0,0 -0.5477891090134713,0.27467283117471636 l -6.430988616581284 -13.10586006665307" fill="#ff850c" stroke="none" /><path d="M 106.91757812671514 119.82793768551818 l 5.312824516261397 15.228213041165443 a37.12837799556141,37.12837799556141 0 0,0 -0.6052460740394344,0.2053323296058074 l -5.049908709284736 -15.317408357669374" fill="#ff9b0e" stroke="none" /><path d="M 106.2309692047433 120.05430185196036 l 4.806673584317828 15.47022297757048 a37.19975030430804,37.19975030430804 0 0,0 -0.6131316440426234,0.18473153475447318 l -4.539666965834959 -15.550669881430679" fill="#ff9c0e" stroke="none" /><path d="M 103.7750983002368 120.6578951692458 l 6.785332260442247 37.13033976252347 a58.74523631883936,58.74523631883936 0 0,0 -0.9962941112415298,0.17321850180866416 l -6.145189177728668 -37.24163684285314" fill="#52ff2b" stroke="none" /><path d="M 103.06178313531738 120.77559828337769 l 4.550407952630819 30.876598201507015 a52.21010299618814,52.21010299618814 0 0,0 -0.8902354825774177,0.12337852604103851 l -4.018243878866571 -30.950351293040654" fill="#9dff22" stroke="none" /><path d="M 100.90346689309514 120.98055641714683 l 0.7472252964594092 17.352271133010916 a38.368352228038006,38.368352228038006 0 0,0 -0.6600811809413639,0.02273453051581479 l -0.44842376384339294 -17.362562461952823" fill="#ffad10" stroke="none" /><line stroke="#e1ed5e" stroke-width="0.3" x1="102.19456741930631" x2="102.32365962044197" y1="184.97166512339345" y2="189.96999836594603" /><path d="M 102.22038585953345 185.97133177190398 a86.0,86.0 0 0,1 -42.740103519485714,-10.115201625700543" fill="none" id="id103" stroke="none" /><text fill="#e1ed5e" style="font-size:6.75px; font-family:Arial;" text-anchor="middle"><textPath startOffset="22.20632615414155" xlink:href="#id103">July</textPath></text><path d="M 98.01472825383883 120.90594882070398 l -1.4592030694785323 15.36617077663064 a36.43529973581832,36.43529973581832 0 0,0 -0.6238545770431002,-0.06466507769798108 l 1.7234902431272259 -15.338776330476898" fill="#ff910d" stroke="none" /><path d="M 96.22490169976321 120.6578951692458 l -2.803077417258873 15.338853410355407 a36.5928723124227,36.5928723124227 0 0,0 -0.6186502260358478,-0.11856578821971477 l 3.0666952578664155 -15.288330423787224" fill="#ff940d" stroke="none" /><path d="M 95.86986931433489 120.58985236759428 l -4.550410601989635 22.685064865402566 a44.13694890417104,44.13694890417104 0 0,0 -0.7436204470833612,-0.15583289477250117 l 4.940222510502384 -22.603375989903522" fill="#fffc17" stroke="none" /><path d="M 95.16358092515715 120.4354850818985 l -1.3380258780637717 5.653605993863302 a26.80978261075364,26.80978261075364 0 0,0 -0.44816600582160276,-0.11014830040620119 l 1.435145168628585 -5.629736435143071" fill="#ff0000" stroke="none" /><path d="M 92.40401165467489 119.57807347666478 l -5.24145552119654 13.509446915069487 a35.49061806589913,35.49061806589913 0 0,0 -0.5676452669801709,-0.22587776659459433 l 5.473221864218569 -13.417222304068826" fill="#ff840c" stroke="none" /><path d="M 91.40352486487194 119.15986991738527 l -11.837224965395832 26.382870531786995 a49.916703691438016,49.916703691438016 0 0,0 -0.7809159384967611,-0.3584802058557949 l 12.289608899660012 -26.17520325559713" fill="#b9ff1f" stroke="none" /><path d="M 90.10565033884886 118.52300852407294 l -21.81163264771075 40.83310892516903 a67.29352118011116,67.29352118011116 0 0,0 -1.0170204062667505,-0.5545606150581157 l 22.511275865846137 -40.45160765835115" fill="#37ff73" stroke="none" /><line stroke="#e1ed5e" stroke-width="0.3" x1="58.666819895761336" x2="56.23545636021788" y1="174.27360380694188" y2="178.64263932499728" /><path d="M 58.180547188652646 175.14741091055294 a86.0,86.0 0 0,1 -31.652253787137756,-30.449443065178592" fill="none" id="id104" stroke="none" /><text fill="#e1ed5e" style="font-size:6.75px; font-family:Arial;" text-anchor="middle"><textPath startOffset="22.20632615414155" xlink:href="#id104">August</textPath></text><path d="M 88.8546689885994 117.79835938074946 l -15.351339460102729 24.515077785244976 a49.92494878190658,49.92494878190658 0 0,0 -0.7244304964629626,-0.4623658180853058 l 15.771051758612614 -24.247197538335868" fill="#b9ff1f" stroke="none" /><path d="M 87.95078237400918 117.19931262002967 l -9.960880039464346 14.218374593866878 a38.360337187166564,38.360337187166564 0 0,0 -0.5375428061278675,-0.3835225195255334 l 10.2041501734411 -14.044807812497126" fill="#ffad10" stroke="none" /><path d="M 84.9287848128048 114.62390073753433 l -16.625020747567657 16.131589268159345 a44.165048827353004,44.165048827353004 0 0,0 -0.5247090638310967,-0.5501553556677116 l 16.90023636277771 -15.843026795909134" fill="#fffc17" stroke="none" /><path d="M 84.19399662182784 113.82643327865904 l -10.909016766605145 9.542753398846946 a35.4938190013977,35.4938190013977 0 0,0 -0.398304014838971,-0.46331755364279686 l 11.071663291014895 -9.353558746042617" fill="#ff840c" stroke="none" /><path d="M 83.95833913139862 113.55231037782056 l -26.509579128140246 22.39581345552242 a55.70346158361854,55.70346158361854 0 0,0 -0.6124834333063928,-0.7377757513942648 l 26.891158561340173 -21.936176447014393" fill="#74ff27" stroke="none" /><path d="M 83.72743513129214 113.27417163493432 l -9.862614113370327 8.045322514692122 a33.72785808825128,33.72785808825128 0 0,0 -0.3631078370718665,-0.4530328571294313 l 9.999639862497055 -7.874361823984432" fill="#ff6a09" stroke="none" /><path d="M 82.05923443525364 110.91462005526583 l -13.144807628357427 7.996904058821278 a36.38624197497608,36.38624197497608 0 0,0 -0.3209251369160623,-0.5378889890507079 l 13.280513640971721 -7.76945297588446" fill="#ff910d" stroke="none" /><line stroke="#e1ed5e" stroke-width="0.3" x1="26.63291911575756" x2="22.317208475507996" y1="142.92168965132927" y2="145.44649492493687" /><path d="M 25.769776987707644 143.4266507060508 a86.0,86.0 0 0,1 -11.730757126820373,-40.83630448921669" fill="none" id="id105" stroke="none" /><text fill="#e1ed5e" style="font-size:6.75px; font-family:Arial;" text-anchor="middle"><textPath startOffset="21.46611528233685" xlink:href="#id105">September</textPath></text><path d="M 81.18737489456691 109.33194174019688 l -15.579178344232682 7.728000949029139 a38.39059506025035,38.39059506025035 0 0,0 -0.28856335270874167,-0.5945259762218094 l 15.709894953556143 -7.458686016842044" fill="#ffad10" stroke="none" /><path d="M 80.87730276802145 108.67885076344099 l -16.580399083590546 7.525026804489524 a39.20812077561592,39.20812077561592 0 0,0 -0.2736333166952018,-0.6169708920617891 l 16.707473485017026 -7.2385075759350395" fill="#ffb911" stroke="none" /><path d="M 80.58989483394504 108.01547362559985 l -13.450695073851616 5.554513522110722 a35.552450599024446,35.552450599024446 0 0,0 -0.22871633965102714,-0.5676551981233491 l 13.54431402776003 -5.322158956144567" fill="#ff850c" stroke="none" /><path d="M 80.32549172779594 107.34259656027581 l -14.060661818471797 5.247489069364511 a36.007942973856565,36.007942973856565 0 0,0 -0.21171939849422272,-0.5825608547926606 l 14.148905477971244 -5.004680417565734" fill="#ff8b0c" stroke="none" /><path d="M 80.0844068197444 106.66101706037122 l -28.53490743348623 9.543853577959359 a51.088637113620734,51.088637113620734 0 0,0 -0.2717617452671559,-0.8363966494427442 l 28.69496142976963 -9.051258028538811" fill="#aaff21" stroke="none" /><path d="M 79.76711848015287 105.62410040840567 l -14.001035881164482 3.8918446460588285 a35.53187739057525,35.53187739057525 0 0,0 -0.1587292271046695,-0.5906905027783281 l 14.065953184610926 -3.6502632101049612" fill="#ff840c" stroke="none" /><path d="M 79.67330655649465 105.27499134158121 l -8.407156767913511 2.1817458545983697 a29.685637564066965,29.685637564066965 0 0,0 -0.12409824314584186,-0.49571079349796704 l 8.44346632535441 -2.036707221703011" fill="#ff2d04" stroke="none" /><path d="M 79.58551787078972 104.9243191809786 l -8.876234437272673 2.1410982271150805 a30.130818112501238,30.130818112501238 0 0,0 -0.11727981050310615,-0.5052383541495695 l 8.911774813706334 -1.9879912156169368" fill="#ff3404" stroke="none" /><path d="M 79.1416061653843 102.43462659150553 l -28.725857810107797 3.3529301365588036 a49.92087563382505,49.92087563382505 0 0,0 -0.09227683329320506,-0.8543688722632896 l 28.779316944902053 -2.857964942410732" fill="#b9ff1f" stroke="none" /><path d="M 79.04373962182676 101.35467743843564 l -26.321864568067515 1.7015266762508061 a47.376803206030885,47.376803206030885 0 0,0 -0.04560276552748451,-0.8142680126984031 l 26.34725368448253 -1.2481869472169653" fill="#d8ff1c" stroke="none" /><path d="M 79.0095281055655 100.63252640178507 l -15.918322571972421 0.4796823696742871 a36.92554830080092,36.92554830080092 0 0,0 -0.013676409524064716,-0.6354890101639503 l 15.924221044181493 -0.205603543720208" fill="#ff980e" stroke="none" /><line stroke="#e1ed5e" stroke-width="0.3" x1="15.007084014347285" x2="10.007500721073583" y1="101.09737516637583" y2="101.16192664675087" /><path d="M 14.007167355692545 101.11028546245083 a86.0,86.0 0 0,1 10.666146001902534,-42.60595125391555" fill="none" id="id106" stroke="none" /><text fill="#e1ed5e" style="font-size:6.75px; font-family:Arial;" text-anchor="middle"><textPath startOffset="22.20632615414155" xlink:href="#id106">October</textPath></text><path d="M 79.00486145842228 99.54816195383935 l -8.774790068470498 -0.18884295486576158 a29.77682188535981,29.77682188535981 0 0,0 0.01543900642036346,-0.5123454600947267 l 8.770239367594488 0.3398585623854826" fill="#ff2e04" stroke="none" /><path d="M 79.12142395522702 97.74499172005258 l -15.206038582357671 -1.6423410693758052 a36.294472647211755,36.294472647211755 0 0,0 0.07243278745550202,-0.6205598889608768 l 15.17551544189858 1.9038446966615437" fill="#ff8f0d" stroke="none" /><path d="M 79.21141760316559 97.0276538004421 l -28.970129540850653 -4.142141719800956 a50.26475258122958,50.26475258122958 0 0,0 0.12983650453634887,-0.8554603422820635 l 28.894537142875002 4.640201174475112" fill="#b4ff20" stroke="none" /><path d="M 79.32604984820605 96.31383870115002 l -34.61636077000959 -6.172090405585399 a56.16229703722694,56.16229703722694 0 0,0 0.17788545385668922,-0.9502712074945493 l 34.50498959224304 6.7670396905425205" fill="#6fff28" stroke="none" /><path d="M 79.46518482838121 95.60439243477599 l -14.21432498882249 -3.042666512127917 a35.536328779712164,35.536328779712164 0 0,0 0.1331861209668752,-0.5970472651205957 l 14.159844480853577 3.2868919467984723" fill="#ff840c" stroke="none" /><path d="M 79.62865764111835 94.90015583598534 l -14.403609080595674 -3.6058577003099814 a35.84810305397639,35.84810305397639 0 0,0 0.15500663108534732,-0.5973037807561442 l 14.339406117640019 3.8532579066149895" fill="#ff890c" stroke="none" /><path d="M 79.71946130924805 94.55025226153421 l -14.061653165175027 -3.7786206621300327 a35.560496689534766,35.560496689534766 0 0,0 0.16393935832276657,-0.5897770972272891 l 13.9945270362859 4.020109062776264" fill="#ff850c" stroke="none" /><path d="M 79.91906864156998 93.8553929516997 l -28.509441039996616 -8.723664716075259 a50.81426763298974,50.81426763298974 0 0,0 0.2631320453058327,-0.8342004909350879 l 28.355053510922577 9.21311537343676" fill="#aeff20" stroke="none" /><path d="M 80.14247586403 93.16781622104843 l -16.46648950373128 -5.665463716087467 a38.41386676458724,38.41386676458724 0 0,0 0.22050825203111624,-0.6234065224525357 l 16.366528170890355 5.948067864966613" fill="#ffae10" stroke="none" /><path d="M 80.38941819471856 92.48833698450439 l -16.221534856517913 -6.213518020330347 a38.37083761049523,38.37083761049523 0 0,0 0.24156534421665088,-0.6147574522397232 l 16.112175962419574 6.491824477465833" fill="#ffad10" stroke="none" /><path d="M 80.803312248108 91.48605970444005 l -32.747016129448916 -14.523658653373035 a56.82322886148155,56.82322886148155 0 0,0 0.4042504159317405,-0.8907122060823692 l 32.49216339655382 15.085192868297476" fill="#67ff28" stroke="none" /><path d="M 81.10775173730289 90.83032412892265 l -15.625960321734889 -7.5843271447761795 a38.36930206471814,38.36930206471814 0 0,0 0.29350686603156734,-0.5916919318879033 l 15.493093442749908 7.852178665163044" fill="#ffad10" stroke="none" /><path d="M 81.43458229118936 90.18545643968196 l -15.927763017594026 -8.420156573175964 a39.01645557431967,39.01645557431967 0 0,0 0.3189909247291903,-0.5910417371978494 l 15.780463993646364 8.693079293706287" fill="#ffb610" stroke="none" /><line stroke="#e1ed5e" stroke-width="0.3" x1="26.266209847984243" x2="21.928928074336255" y1="57.711370442889674" y2="55.22380399835377" /><path d="M 25.398753493254645 57.213857153982495 a86.0,86.0 0 0,1 29.58750427330803,-30.492523968695096" fill="none" id="id107" stroke="none" /><text fill="#e1ed5e" style="font-size:6.75px; font-family:Arial;" text-anchor="middle"><textPath startOffset="21.46611528233685" xlink:href="#id107">November</textPath></text><path d="M 81.78341655067845 89.55222093294921 l -12.934978826169049 -7.418614000191533 a35.91138863142127,35.91138863142127 0 0,0 0.31215602719058616,-0.5335758373316111 l 12.805363124508139 7.640169249877036" fill="#ff8a0c" stroke="none" /><path d="M 82.7489923806493 88.02491185347247 l -9.575874334578806 -6.647260366868229 a32.656905234949036,32.656905234949036 0 0,0 0.32452780946640614,-0.45902157173967234 l 9.460033905308523 6.811108438939688" fill="#ff5a08" stroke="none" /><path d="M 82.95767976084542 87.72973835380427 l -9.468616685917544 -6.817287935759765 a32.66748116535406,32.66748116535406 0 0,0 0.3324886704782316,-0.45351417287402856 l 9.34986540292568 6.979264552305294" fill="#ff5a08" stroke="none" /><path d="M 83.39014120810768 87.1503855733568 l -22.976776927560454 -17.77514956540502 a50.04975421671227,50.04975421671227 0 0,0 0.5330201570401139,-0.6768814703965147 l 22.66740268992637 18.16802342975458" fill="#b7ff1f" stroke="none" /><path d="M 83.84228863543731 86.58626213691792 l -11.169639856247205 -9.272762563721466 a35.5170582447485,35.5170582447485 0 0,0 0.3945596537456883,-0.46703417951374854 l 11.008369589014391 9.46365569286433" fill="#ff840c" stroke="none" /><path d="M 84.31358615837235 86.03803664274999 l -13.020667991272994 -11.589270257465577 a38.431264441787846,38.431264441787846 0 0,0 0.4440757483793468,-0.49035953280398453 l 12.819248602277602 11.811682577539116" fill="#ffae10" stroke="none" /><path d="M 84.5562425177563 85.77008943001954 l -12.847079624372 -11.83732613973114 a38.46910830618771,38.46910830618771 0 0,0 0.45289622228320786,-0.48311811265582516 l 12.641416080118336 12.056713669265015" fill="#ffae10" stroke="none" /><path d="M 85.05521093208273 85.24692304244772 l -30.890154426581724 -30.4938947893458 a64.40598184492268,64.40598184492268 0 0,0 0.7856431811306271,-0.7822693796342716 l 30.360675445283785 31.02110001963018" fill="#33ff4f" stroke="none" /><path d="M 85.57189188830299 84.74124197986013 l -9.947144573011029 -10.51981804238577 a35.47799215365473,35.47799215365473 0 0,0 0.44734726767027266,-0.41576053163305093 l 9.7645894215459 10.68948316009347" fill="#ff840c" stroke="none" /><line stroke="#e1ed5e" stroke-width="0.3" x1="56.762969772571076" x2="54.21961505331055" y1="26.818313649435495" y2="22.513508569990535" /><path d="M 56.25429882871897 25.957352633546506 a86.0,86.0 0 0,1 42.265352541879196,-11.944610805530505" fill="none" id="id108" stroke="none" /><text fill="#e1ed5e" style="font-size:6.75px; font-family:Arial;" text-anchor="middle"><textPath startOffset="22.20632615414155" xlink:href="#id108">December</textPath></text></svg>