<?xml version="1.0" encoding="utf-8" ?>
<svg baseProfile="full" height="200mm" version="1.1" viewBox="0,0,200,200" width="200mm" xmlns="http://www.w3.org/2000/svg" xmlns:ev="http://www.w3.org/2001/xml-events" xmlns:xlink="http://www.w3.org/1999/xlink"><defs /><rect fill="#1a1a1a" height="200" width="200" x="0" y="0" /><text alignment-baseline="middle" fill="#e1ed5e" style="dominant-baseline: central; font-size:9.0px; font-family:Arial;" text-anchor="middle" x="100.0" y="100.0">2025</text><line stroke="#e1ed5e" stroke-width="0.3" x1="100.0" x2="100.0" y1="15.0" y2="10.0" /><path d="M 100.0 14.0 a86.0,86.0 0 0,1 42.46469731375804,11.215312516191453" fill="none" id="id97" stroke="none" /><text fill="#e1ed5e" style="font-size:6.75px; font-family:Arial;" text-anchor="middle"><textPath startOffset="22.20632615414155" xlink:href="#id97">January</textPath></text><path d="M 100.0 79.0 l 0.0 -34.13638005864395 a55.13638005864395,55.13638005864395 0 0,0 0.9490821470928996,0.008169049675956023 l -0.5876016678203713 34.13132238557655" fill="#76ff27" stroke="none" /><path d="M 101.44485096284872 79.0497635885617 l 1.7534575886554513 -25.425010581945127 a46.48540320668353,46.48540320668353 0 0,0 0.79779977938743,0.06192461746526106 l -2.1908475574052226 25.3910607022914" fill="#ddff1b" stroke="none" /><path d="M 105.36241919743992 79.69619591428918 l 7.2952314720564875 -27.622038694636398 a49.569169114254514,49.569169114254514 0 0,0 0.8230892333127328,0.22498137984028782 l -7.769618594592931 27.492370773969817" fill="#b7ff1f" stroke="none" /><path d="M 108.76106565485865 80.91482961587045 l 10.67216700538311 -23.248327736554156 a46.580850086285665,46.580850086285665 0 0,0 0.7258223373533177,0.3407833196023771 l -11.070767554036028 23.06117943431178" fill="#dcff1b" stroke="none" /><path d="M 109.08828744355905 81.06846463323043 l 7.871090339562856 -16.396029071910394 a39.18746360712484,39.18746360712484 0 0,0 0.6055932339759542,0.29716196984946164 l -8.152154840549242 16.2581119419261" fill="#ffc112" stroke="none" /><path d="M 109.41281617654863 81.2277094730956 l 9.302721529959932 -18.552725133035462 a41.75437876029889,41.75437876029889 0 0,0 0.6397158792082375,0.32768732003001066 l -9.620697896756925 18.38984528769295" fill="#ffe415" stroke="none" /><path d="M 110.05341064243156 81.56283822128135 l 8.74746310734396 -16.042157054918242 a39.27208017137093,39.27208017137093 0 0,0 0.5907192427698982,0.3287346190432943 l -9.022306439185892 15.889207038314767" fill="#ffc312" stroke="none" /><line stroke="#e1ed5e" stroke-width="0.3" x1="143.23703022742887" x2="145.7803849466894" y1="26.81831364943548" y2="22.513508569990506" /><path d="M 143.74570117128098 25.957352633546492 a86.0,86.0 0 0,1 28.547481713284135,27.462654790039103" fill="none" id="id98" stroke="none" /><text fill="#e1ed5e" style="font-size:6.75px; font-family:Arial;" text-anchor="middle"><textPath startOffset="19.985693538727396" xlink:href="#id98">February</textPath></text><path d="M 110.68208982089419 81.91981866633111 l 12.93510253967935 -21.893562346719385 a46.42921449714301,46.42921449714301 0 0,0 0.6845831449539748,0.41245368498167967 l -13.310047750850963 21.66766205227909" fill="#deff1b" stroke="none" /><path d="M 111.90073688211348 82.69761687909136 l 14.34976989101057 -20.863011997543712 a46.32155535378122,46.32155535378122 0 0,0 0.6530652431574685,0.45751393748207586 l -14.70676627375169 20.6129132172977" fill="#dfff1b" stroke="none" /><path d="M 112.19680574252982 82.90503203632743 l 10.640569251421732 -14.913756462810145 a39.320530719013384,39.320530719013384 0 0,0 0.5475939701061996,0.3978503073614479 l -10.895708537881722 14.728386920632023" fill="#ffc312" stroke="none" /><path d="M 114.16331599549186 84.49514656593476 l 10.368141088715522 -11.350202736097401 a36.37288039978273,36.37288039978273 0 0,0 0.45863104635882895,0.42624757417343456 l -10.561980018869198 11.170050575849327" fill="#ff9a0e" stroke="none" /><path d="M 114.94478906791727 85.2469230424477 l 9.390543973070663 -9.270081851165097 a34.1953299935043,34.1953299935043 0 0,0 0.40991364637285543,0.4224520450140044 l -9.548721883146627 9.107065610600978" fill="#ff7b0b" stroke="none" /><path d="M 115.68641384162765 86.03803664274999 l 40.34353948555747 -35.908463571472105 a75.00943375269244,75.00943375269244 0 0,0 0.8501359781694848,0.9718523839111028 l -40.9556673273048 35.208695631358054" fill="#41ffcf" stroke="none" /><path d="M 116.38621287248628 86.86637796730983 l 19.98906416123505 -16.021323262659443 a46.61728879348094,46.61728879348094 0 0,0 0.4964650672587972,0.6304602186017321 l -20.26188330908781 15.67487065010467" fill="#dbff1b" stroke="none" /><path d="M 117.04232023915458 87.72973835380427 l 13.293098576847758 -9.570868011965345 a37.380109409776644,37.380109409776644 0 0,0 0.37146462400811964,0.525410367260202 l -13.45587582065976 9.34063114437335" fill="#ffa80f" stroke="none" /><line stroke="#e1ed5e" stroke-width="0.3" x1="172.23445277983987" x2="176.4835382374775" y1="55.19839476539836" y2="52.563006222186495" /><path d="M 173.08426987136738 54.67131705675599 a86.0,86.0 0 0,1 12.851231095245387,41.99856678651699" fill="none" id="id99" stroke="none" /><text fill="#e1ed5e" style="font-size:6.75px; font-family:Arial;" text-anchor="middle"><textPath startOffset="22.20632615414155" xlink:href="#id99">March</textPath></text><path d="M 118.03404312379186 89.2402003453031 l 21.943766314512654 -13.092489997550688 a46.55273320805242,46.55273320805242 0 0,0 0.40465481305209017,0.6916862462908976 l -22.165880802035073 12.712824338905895" fill="#dcff1b" stroke="none" /><path d="M 119.47837535516314 92.15188598940014 l 14.177426795798047 -5.712286566079707 a36.28494842527207,36.28494842527207 0 0,0 0.22843353447765735,0.581338428808949 l -14.273653880157404 5.4673991323749735" fill="#ff990e" stroke="none" /><path d="M 119.61058180528143 92.48833698450437 l 11.690935371232312 -4.478111242012446 a33.51924319398617,33.51924319398617 0 0,0 0.20174659698180852,0.5405805778138146 l -11.766286556715746 4.276207527169298" fill="#ff720a" stroke="none" /><path d="M 119.97218684219823 93.5106431181261 l 12.075397465901322 -3.923534476512265 a33.69682427805774,33.69682427805774 0 0,0 0.17449261212691208,0.553189264848505 l -12.14114556179644 3.715095045237341" fill="#ff740a" stroke="none" /><path d="M 120.53481517161879 95.60439243477599 l 7.509395803648435 -1.6074338497285074 a28.679509679472105,28.679509679472105 0 0,0 0.09917743741599647,0.48362440699038756 l -7.535952536979429 1.477933786574708" fill="#ff2a04" stroke="none" /><path d="M 120.78858239683441 97.02765380044208 l 15.39949165815845 -2.201815382669916 a36.5561027995142,36.5561027995142 0 0,0 0.08370303245017513,0.6236848151745006 l -15.43511068966646 1.936412225430751" fill="#ff9d0e" stroke="none" /><path d="M 120.83666639777658 97.38593545837742 l 13.001239296644458 -1.6310708245602514 a34.10315287567629,34.10315287567629 0 0,0 0.0680595761182969,0.583092884898875 l -13.027389225766344 1.4070342013365238" fill="#ff7a0b" stroke="none" /><path d="M 120.91429891909075 98.10471618934814 l 28.606298475335645 -2.5923438597068604 a49.72351926813548,49.72351926813548 0 0,0 0.0699101225096666,0.8530805704647888 l -28.646683081664808 2.099549372034303" fill="#b5ff20" stroke="none" /><path d="M 120.96714384426684 98.82574320788733 l 39.82071527451873 -2.2301437775786543 a60.88311555336371,60.88311555336371 0 0,0 0.049594782220054465,1.0468674676432443 l -39.853203664972284 1.5443652033124102" fill="#37ff2e" stroke="none" /><line stroke="#e1ed5e" stroke-width="0.3" x1="184.98032266829074" x2="189.97916517819016" y1="98.17113171792111" y2="98.06355123074" /><path d="M 185.9800911702706 98.14961562048488 a86.0,86.0 0 0,1 -9.607161424134198,41.387399972396054" fill="none" id="id100" stroke="none" /><text fill="#e1ed5e" style="font-size:6.75px; font-family:Arial;" text-anchor="middle"><textPath startOffset="21.466115282336823" xlink:href="#id100">April</textPath></text><path d="M 120.99824983174949 100.27111621757518 l 12.874365884527414 0.16622572882309902 a33.87543894092959,33.87543894092959 0 0,0 -0.012546716219067038,0.5829966013253371 l -12.86959710562334 -0.387812145938551" fill="#ff770a" stroke="none" /><path d="M 120.41448212921028 104.9243191809786 l 12.700865545430998 3.063664090254125 a34.06514535935322,34.06514535935322 0 0,0 -0.14240639711644407,0.5688427678288649 l -12.646247834019492 -3.2818346974803854" fill="#ff790b" stroke="none" /><path d="M 120.13307415673323 105.97154293290107 l 24.359465148098813 7.225105854275676 a46.408378478504474,46.408378478504474 0 0,0 -0.233750665448969,0.7639106994102189 l -24.23148771014371 -7.643343526237952" fill="#deff1b" stroke="none" /><path d="M 120.02730092923936 106.31721596034902 l 19.002942121539792 5.9941022351402395 a40.925889462704156,40.925889462704156 0 0,0 -0.21770185652555135,0.6700174198411832 l -18.896948013997996 -6.320318554959218" fill="#ffd914" stroke="none" /><path d="M 119.79798401119884 107.00284435728193 l 7.443983548852239 2.633048807458996 a28.895938012550758,28.895938012550758 0 0,0 -0.16990225238318404,0.4674980284446856 l -7.397557035463828 -2.7607946329098128" fill="#ff2d04" stroke="none" /><path d="M 119.41010516605496 108.01547362559984 l 14.565215196344967 6.014758666102449 a36.75826181808428,36.75826181808428 0 0,0 -0.24654119572158978,0.5827505595939553 l -14.459523019431067 -6.264583751362568" fill="#ffa00e" stroke="none" /><path d="M 119.12269723197855 108.67885076344098 l 23.180046777734248 10.520281957772845 a46.45566540259729,46.45566540259729 0 0,0 -0.3367491174224268,0.725327640320036 l -22.995523043471987 -10.917729665371711" fill="#ddff1b" stroke="none" /><line stroke="#e1ed5e" stroke-width="0.3" x1="174.80103733775053" x2="179.2010983576182" y1="140.37084112569926" y2="142.7455964860345" /><path d="M 175.68104954172406 140.8457921977663 a86.0,86.0 0 0,1 -30.038265399797805,32.042727171017184" fill="none" id="id101" stroke="none" /><text fill="#e1ed5e" style="font-size:6.75px; font-family:Arial;" text-anchor="middle"><textPath startOffset="22.206326154141568" xlink:href="#id101">May</textPath></text><path d="M 118.48025628344425 109.97397251340804 l 22.70472182323451 12.253957299953159 a46.80046244894724,46.80046244894724 0 0,0 -0.38871927141310364,0.7056383887596741 l -22.4904261423699 -12.642966207110637" fill="#d9ff1c" stroke="none" /><path d="M 115.56566222782051 114.09645910891815 l 18.87739725888968 17.09560792518891 a46.46793940627544,46.46793940627544 0 0,0 -0.5420232700287766,0.5882592087202826 l -18.58032758086518 -17.41801838871053" fill="#ddff1b" stroke="none" /><path d="M 114.81725581225074 114.88116024355365 l 17.55189131792208 17.62758979051206 a45.87570723936736,45.87570723936736 0 0,0 -0.5643805309564133,0.5523651358965835 l -17.245860834589873 -17.927105029331216" fill="#e5ff1a" stroke="none" /><path d="M 114.29624159901734 115.38237550388516 l 17.125078378399557 18.426128596491637 a46.15532795494376,46.15532795494376 0 0,0 -0.5866132297942447,0.5358572769516088 l -16.80536559913845 -18.71817864002983" fill="#e1ff1b" stroke="none" /><path d="M 113.20401910651253 116.32954008644616 l 24.149683706032523 29.86615097808739 a59.40825689024852,59.40825689024852 0 0,0 -0.8007172373098879,0.6361382001280091 l -23.632008976005284 -30.277423092220527" fill="#47ff2c" stroke="none" /><path d="M 112.34349029814194 116.9893568818739 l 7.5977555153918965 10.457413327545545 a33.92607374165857,33.92607374165857 0 0,0 -0.47540554169303134,0.33918923119797023 l -7.41662264584998 -10.586646820587735" fill="#ff770b" stroke="none" /><path d="M 111.7513745106137 117.40417183066458 l 8.466307078476543 12.538879007889129 a36.129502381821574,36.129502381821574 0 0,0 -0.5184158661703604,0.3435777677445568 l -8.249216513566218 -12.682754796725005" fill="#ff970d" stroke="none" /><line stroke="#e1ed5e" stroke-width="0.3" x1="143.8653032363475" x2="146.44561519142675" y1="172.8068346515853" y2="177.08958963109032" /><path d="M 144.38136562736335 173.6633856474863 a86.0,86.0 0 0,1 -40.68145358897372,12.25698825130547" fill="none" id="id102" stroke="none" /><text fill="#e1ed5e" style="font-size:6.75px; font-family:Arial;" text-anchor="middle"><textPath startOffset="21.466115282336833" xlink:href="#id102">June</textPath></text><path d="M 110.8373102113329 117.98757091392108 l 21.02703548638517 34.900292096960214 a61.745142161966314,61.745142161966314 0 0,0 -0.9150986689868562,0.540656423555608 l -20.423168946369934 -35.25706709280957" fill="#2fff31" stroke="none" /><path d="M 110.21172684928248 118.3499491758327 l 8.049399317024095 14.464357551216022 a37.553261573911286,37.553261573911286 0 0,0 -0.5675499315947184,0.309473474870283 l -7.799226573560729 -14.600771677846074" fill="#ffab0f" stroke="none" /><path d="M 109.57404056367764 118.69057910512821 l 5.705823742536926 11.138990827383749 a33.51533224622652,33.51533224622652 0 0,0 -0.5157308880039081,0.25859817364277016 l -5.513238946850257 -11.235556841935821" fill="#ff710a" stroke="none" /><path d="M 106.91757812671514 119.82793768551818 l 4.554645138900005 13.055034339979564 a34.826739093486616,34.826739093486616 0 0,0 -0.5677260426094662,0.19260349782837646 l -4.329249363353312 -13.131500824706063" fill="#ff840c" stroke="none" /><path d="M 106.2309692047433 120.05430185196036 l 4.120725690841753 13.262507667404336 a34.88792604556642,34.88792604556642 0 0,0 -0.5750278235356423,0.17325116620612557 l -3.891822892865865 -13.331474202716187" fill="#ff850c" stroke="none" /><path d="M 103.7750983002368 120.6578951692458 l 5.817015130323213 31.831565486015457 a53.358711753048816,53.358711753048816 0 0,0 -0.9049409557987977,0.15733558476365128 l -5.268225203052365 -31.92697964930011" fill="#8aff24" stroke="none" /><path d="M 103.06178313531738 120.77559828337769 l 3.9010310613545887 26.470279128139616 a47.75619032043383,47.75619032043383 0 0,0 -0.8142917308375044,0.11285341405092837 l -3.444810739330254 -26.533507107683146" fill="#cdff1d" stroke="none" /><path d="M 100.90346689309514 120.98055641714683 l 0.6405907166263561 14.87597362249382 a35.889759826248365,35.889759826248365 0 0,0 -0.6174399908813429,0.021265881712242366 l -0.3844303740703609 -14.884796302632155" fill="#ff940d" stroke="none" /><line stroke="#e1ed5e" stroke-width="0.3" x1="102.19456741930631" x2="102.32365962044197" y1="184.97166512339345" y2="189.96999836594603" /><path d="M 102.22038585953345 185.97133177190398 a86.0,86.0 0 0,1 -42.740103519485714,-10.115201625700543" fill="none" id="id103" stroke="none" /><text fill="#e1ed5e" style="font-size:6.75px; font-family:Arial;" text-anchor="middle"><textPath startOffset="22.20632615414155" xlink:href="#id103">July</textPath></text><path d="M 98.01472825383883 120.90594882070398 l -1.2509639922654963 13.173304485603035 a34.232568230708424,34.232568230708424 0 0,0 -0.5861388414398898,-0.060755687492369724 l 1.4775354303109793 -13.149819429654904" fill="#ff7c0b" stroke="none" /><path d="M 96.22490169976321 120.6578951692458 l -2.4030575249382737 13.149885509664294 a34.36765403447596,34.36765403447596 0 0,0 -0.5810300092111766,-0.11135578412839604 l 2.6290551487211453 -13.10657252718743" fill="#ff7e0b" stroke="none" /><path d="M 95.86986931433489 120.58985236759428 l -3.901033332630294 19.44773822259509 a40.83513506475009,40.83513506475009 0 0,0 -0.687991402837754,-0.14417528767976784 l 4.235216196897435 -19.37770695418878" fill="#ffd814" stroke="none" /><path d="M 95.16358092515715 120.4354850818985 l -1.147079682867832 4.846794577609286 a25.980683635445132,25.980683635445132 0 0,0 -0.43430636430232555,-0.10674193772416571 l 1.2303393319133682 -4.82633138157109" fill="#ff0000" stroke="none" /><path d="M 92.40401165467489 119.57807347666478 l -4.493461027615058 11.581548860237474 a33.42269962644043,33.42269962644043 0 0,0 -0.5345704945859525,-0.2127166320734259 l 4.692152598242868 -11.50248538375798" fill="#ff700a" stroke="none" /><path d="M 91.40352486487194 119.15986991738527 l -10.147965358480368 22.617839653847795 a45.790076069348544,45.790076069348544 0 0,0 -0.7163574030964477,-0.3288445486497165 l 10.535790757344234 -22.439808034864004" fill="#e6ff1a" stroke="none" /><path d="M 90.10565033884886 118.52300852407294 l -18.698951246422176 35.00592208587923 a60.687093100890124,60.687093100890124 0 0,0 -0.9171761411536443,-0.500117560887355 l 19.298750199444463 -34.6788638732321" fill="#39ff2e" stroke="none" /><line stroke="#e1ed5e" stroke-width="0.3" x1="58.666819895761336" x2="56.23545636021788" y1="174.27360380694188" y2="178.64263932499728" /><path d="M 58.180547188652646 175.14741091055294 a86.0,86.0 0 0,1 -31.652253787137756,-30.449443065178592" fill="none" id="id104" stroke="none" /><text fill="#e1ed5e" style="font-size:6.75px; font-family:Arial;" text-anchor="middle"><textPath startOffset="22.20632615414155" xlink:href="#id104">August</textPath></text><path d="M 88.8546689885994 117.79835938074946 l -13.160589707706533 21.0165947553062 a45.797144524387384,45.797144524387384 0 0,0 -0.6645344452794253,-0.42413732433639373 l 13.520405955032881 -20.786943002146003" fill="#e6ff1a" stroke="none" /><path d="M 87.95078237400918 117.19931262002967 l -8.539388739840733 12.18930731267331 a35.8828885910266,35.8828885910266 0 0,0 -0.5028263576277184,-0.35875325529955393 l 8.747942425317339 -12.040509795529537" fill="#ff930d" stroke="none" /><path d="M 84.9287848128048 114.62390073753433 l -14.25250724925227 13.829492093718997 a40.859224920933464,40.859224920933464 0 0,0 -0.48543375873840633,-0.5089753552986264 l 14.488447559369634 -13.582109621837871" fill="#ffd814" stroke="none" /><path d="M 84.19399662182784 113.82643327865904 l -9.35221933909479 8.180931865290551 a33.425443764754036,33.425443764754036 0 0,0 -0.37509315209928557,-0.4363180765051198 l 9.491655000764855 -8.018736689623902" fill="#ff700a" stroke="none" /><path d="M 83.95833913139862 113.55231037782056 l -22.726465995762684 19.19976512958248 a50.75102078396116,50.75102078396116 0 0,0 -0.558029224214424,-0.6721821486211589 l 23.053591219870643 -18.80572172384756" fill="#a9ff21" stroke="none" /><path d="M 83.72743513129214 113.27417163493432 l -8.455146088641971 6.897195450417605 a31.911498543350447,31.911498543350447 0 0,0 -0.3435532485780444,-0.42863550132795586 l 8.572617249274876 -6.75063211551139" fill="#ff5a08" stroke="none" /><path d="M 82.05923443525364 110.91462005526583 l -11.26894629834376 6.855686666532464 a34.19051137540264,34.19051137540264 0 0,0 -0.30155888458960567,-0.505430036206814 l 11.385286058631596 -6.660694536439539" fill="#ff7b0b" stroke="none" /><line stroke="#e1ed5e" stroke-width="0.3" x1="26.63291911575756" x2="22.317208475507996" y1="142.92168965132927" y2="145.44649492493687" /><path d="M 25.769776987707644 143.4266507060508 a86.0,86.0 0 0,1 -11.730757126820373,-40.83630448921669" fill="none" id="id105" stroke="none" /><text fill="#e1ed5e" style="font-size:6.75px; font-family:Arial;" text-anchor="middle"><textPath startOffset="21.46611528233685" xlink:href="#id105">September</textPath></text><path d="M 81.18737489456691 109.33194174019688 l -13.355914296892317 6.625158020592599 a35.908828441690346,35.908828441690346 0 0,0 -0.269909125157218,-0.5560927422659807 l 13.467976678664254 -6.394276322361333" fill="#ff940d" stroke="none" /><path d="M 80.87730276802145 108.67885076344099 l -14.214253426958507 6.45114978863987 a36.60968718716906,36.60968718716906 0 0,0 -0.2554988591656504,-0.5760824776896216 l 14.323193370855437 -6.2055189744575525" fill="#ff9e0e" stroke="none" /><path d="M 80.58989483394504 108.01547362559985 l -11.531181341569136 4.7618433349344995 a33.475708199481595,33.475708199481595 0 0,0 -0.2153562220777377,-0.5344964819617125 l 11.611440177904262 -4.562647485129982" fill="#ff710a" stroke="none" /><path d="M 80.32549172779594 107.34259656027581 l -12.054101317520079 4.498633543806673 a33.866198441439565,33.866198441439565 0 0,0 -0.19912637521430798,-0.5479102632146235 l 12.129751953739612 -4.290475483585933" fill="#ff770a" stroke="none" /><path d="M 80.0844068197444 106.66101706037122 l -24.46276496298549 8.181875040701472 a46.79476591899845,46.79476591899845 0 0,0 -0.24892085547775478,-0.7660996189634697 l 24.59997806947949 -7.7595765217601995" fill="#d9ff1c" stroke="none" /><path d="M 79.76711848015287 105.62410040840567 l -12.002984442743223 3.336449612493414 a33.458070940135286,33.458070940135286 0 0,0 -0.14946504746606912,-0.5562150439836785 l 12.058637566551067 -3.129343635334197" fill="#ff710a" stroke="none" /><path d="M 79.67330655649465 105.27499134158121 l -7.207393277859123 1.870394574589556 a28.446132803434473,28.446132803434473 0 0,0 -0.11891660058103498,-0.47501270718900446 l 7.238521192735217 -1.7460540280031596" fill="#ff2603" stroke="none" /><path d="M 79.58551787078972 104.9243191809786 l -7.609530092273741 1.835547664371098 a28.827782792936823,28.827782792936823 0 0,0 -0.11220793576054933,-0.48338885050192915 l 7.639998593964846 -1.7042901565205946" fill="#ff2c04" stroke="none" /><path d="M 79.1416061653843 102.43462659150553 l -24.62646530768698 2.8744421918710907 a45.793652644681444,45.793652644681444 0 0,0 -0.08464781912032392,-0.783733675944247 l 24.67229542830836 -2.450112194042062" fill="#e6ff1a" stroke="none" /><path d="M 79.04373962182676 101.35467743843564 l -22.56553969264104 1.4587062269747129 a43.61263818037986,43.61263818037986 0 0,0 -0.04197955071653521,-0.7495730783108603 l 22.587305594245105 -1.0700614323284148" fill="#fffc17" stroke="none" /><path d="M 79.0095281055655 100.63252640178507 l -13.646660133411643 0.41122814551203085 a34.652854697260494,34.652854697260494 0 0,0 -0.012834653886706527,-0.5963759333111817 l 13.651716849983357 -0.17626239641072033" fill="#ff820c" stroke="none" /><line stroke="#e1ed5e" stroke-width="0.3" x1="15.007084014347285" x2="10.007500721073583" y1="101.09737516637583" y2="101.16192664675087" /><path d="M 14.007167355692545 101.11028546245083 a86.0,86.0 0 0,1 10.666146001902534,-42.60595125391555" fill="none" id="id106" stroke="none" /><text fill="#e1ed5e" style="font-size:6.75px; font-family:Arial;" text-anchor="middle"><textPath startOffset="22.20632615414155" xlink:href="#id106">October</textPath></text><path d="M 79.00486145842228 99.54816195383935 l -7.522562585664144 -0.1618936676267467 a28.52430444724638,28.52430444724638 0 0,0 0.014789587726753378,-0.4907944152727672 l 7.518661303481745 0.29135823032450825" fill="#ff2703" stroke="none" /><path d="M 79.12142395522702 97.74499172005258 l -13.036024340551306 -1.4079668442187085 a34.111838209872225,34.111838209872225 0 0,0 0.06807690941783012,-0.5832413860239933 l 13.009857078129887 1.6321519685675638" fill="#ff7a0b" stroke="none" /><path d="M 79.21141760316559 97.0276538004421 l -24.835877654658606 -3.5510274414262435 a46.088455806743724,46.088455806743724 0 0,0 0.11904890990471509,-0.7843835720860974 l 24.77107285131459 3.978010125904433" fill="#e2ff1b" stroke="none" /><path d="M 79.32604984820605 96.31383870115002 l -29.676349901065635 -5.291287426604655 a51.14437702261274,51.14437702261274 0 0,0 0.16199196255905682,-0.8653675414597038 l 29.580872214596717 5.801333045526931" fill="#a4ff21" stroke="none" /><path d="M 79.46518482838121 95.60439243477599 l -12.185835616238869 -2.6084554828302933 a33.46188708309874,33.46188708309874 0 0,0 0.12541134928304223,-0.5621944881414987 l 12.139129879953789 2.817828140521751" fill="#ff710a" stroke="none" /><path d="M 79.62865764111835 94.90015583598534 l -12.348107467271616 -3.091275120421079 a33.72916886106172,33.72916886106172 0 0,0 0.14584439312143868,-0.5619979403691169 l 12.29306674227987 3.3033694863390597" fill="#ff750a" stroke="none" /><path d="M 79.71946130924805 94.55025226153421 l -12.054951191712044 -3.23938352901376 a33.48260605332898,33.48260605332898 0 0,0 0.1543599629465284,-0.5553149152595702 l 11.997404458199155 3.4464097476922726" fill="#ff710a" stroke="none" /><path d="M 79.91906864156998 93.8553929516997 l -24.44093281231727 -7.4787331994217014 a46.55955099379368,46.55955099379368 0 0,0 0.24109980232332082,-0.7643522598272019 l 24.308577526225747 7.898335625675318" fill="#dcff1b" stroke="none" /><path d="M 80.14247586403 93.16781622104843 l -14.116599587161588 -4.856960115116012 a35.92877910159027,35.92877910159027 0 0,0 0.20624303004579075,-0.5830768189245684 l 14.030903476305989 5.099234560467191" fill="#ff940d" stroke="none" /><path d="M 80.38941819471856 92.48833698450439 l -13.906601780953899 -5.32680301413004 a35.891890526235244,35.891890526235244 0 0,0 0.22595902069088206,-0.5750410611297224 l 13.812849210381325 5.565393080155526" fill="#ff940d" stroke="none" /><path d="M 80.803312248108 91.48605970444005 l -28.073774575267016 -12.451025077556656 a51.71098898415441,51.71098898415441 0 0,0 0.367881044846015,-0.8105771178377975 l 27.85529121345765 12.932424204236524" fill="#9dff22" stroke="none" /><path d="M 81.10775173730289 90.83032412892265 l -13.396020139983193 -6.501987531500573 a35.89057411420474,35.89057411420474 0 0,0 0.27454577908573463,-0.5534675376263134 l 13.282114347944045 6.7316146576258475" fill="#ff940d" stroke="none" /><path d="M 81.43458229118936 90.18545643968196 l -13.654753357576654 -7.218537914702302 a36.4453740285642,36.4453740285642 0 0,0 0.2979702638884728,-0.5520936451450992 l 13.52847499446971 7.452512543179874" fill="#ff9b0e" stroke="none" /><line stroke="#e1ed5e" stroke-width="0.3" x1="26.266209847984243" x2="21.928928074336255" y1="57.711370442889674" y2="55.22380399835377" /><path d="M 25.398753493254645 57.213857153982495 a86.0,86.0 0 0,1 29.58750427330803,-30.492523968695096" fill="none" id="id107" stroke="none" /><text fill="#e1ed5e" style="font-size:6.75px; font-family:Arial;" text-anchor="middle"><textPath startOffset="21.46611528233685" xlink:href="#id107">November</textPath></text><path d="M 81.78341655067845 89.55222093294921 l -11.08906161911836 -6.3599228790498605 a33.783423118244414,33.783423118244414 0 0,0 0.2936589073100516,-0.5019582635262733 l 10.977943037337983 6.549860554930025" fill="#ff750a" stroke="none" /><path d="M 82.7489923806493 88.02491185347247 l -8.20932619837368 -5.698647117797898 a30.99337858806974,30.99337858806974 0 0,0 0.30799652290337376,-0.4356392392563061 l 8.110017055666427 5.839112857385991" fill="#ff4c07" stroke="none" /><path d="M 82.95767976084542 87.72973835380427 l -8.11737500996352 -5.844410494276927 a31.00244525493614,31.00244525493614 0 0,0 0.3155419835466264,-0.43039891094438865 l 8.01557041390326 5.983271848892816" fill="#ff4d07" stroke="none" /><path d="M 83.39014120810768 87.1503855733568 l -19.69782081459474 -15.238504172967337 a45.90413929999237,45.90413929999237 0 0,0 0.48887016372805814,-0.6208154623922216 l 19.432596570272707 15.575312029312606" fill="#e4ff1a" stroke="none" /><path d="M 83.84228863543731 86.58626213691792 l -9.57564958503836 -7.949470720472398 a33.44536659609082,33.44536659609082 0 0,0 0.3715451930904884,-0.4397923172325619 l 9.437393778460747 8.113121987334075" fill="#ff700a" stroke="none" /><path d="M 84.31358615837235 86.03803664274999 l -11.162522306197806 -9.935395622422794 a35.94369400149848,35.94369400149848 0 0,0 0.4153317109149773,-0.45861964871130934 l 10.989846954666783 10.126068058403659" fill="#ff940d" stroke="none" /><path d="M 84.5562425177563 85.77008943001954 l -11.01370628393785 -10.148052094489266 a35.97613726637547,35.97613726637547 0 0,0 0.423546512453547,-0.4518098885588816 l 10.837392449513848 10.336131399926197" fill="#ff950d" stroke="none" /><path d="M 85.05521093208273 85.24692304244772 l -26.481900779569923 -26.142190325186437 a58.211626998792426,58.211626998792426 0 0,0 0.7100826119573566,-0.7070332915581008 l 26.027982367445254 26.594159467394647" fill="#54ff2b" stroke="none" /><path d="M 85.57189188830299 84.74124197986013 l -8.527613426103068 -9.018562153184332 a33.41187552531454,33.41187552531454 0 0,0 0.4212952965109948,-0.3915480636868875 l 8.371110245797217 9.164014802945868" fill="#ff700a" stroke="none" /><path d="M 86.10567301691215 84.25364557470407 l -9.86132068661722 -11.175773452142293 a35.90448113615208,35.90448113615208 0 0,0 0.4669398311739558,-0.40492562029254914 l 9.66748705679649 11.343864065854522" fill="#ff940d" stroke="none" /><path d="M 86.37877921826538 84.01681056812374 l -8.050758031282966 -9.446788415377865 a33.411950541441286,33.411950541441286 0 0,0 0.44094620324073447,-0.3692797642801765 l 7.886954291083121 9.583969337051855" fill="#ff700a" stroke="none" /><path d="M 86.65592168130627 83.78471172551755 l -12.62278497499014 -15.33879615421108 a40.86487774906449,40.86487774906449 0 0,0 0.5469989644447235,-0.44230178801947173 l 12.356882611980916 15.553804039494686" fill="#ffd814" stroke="none" /><path d="M 86.93701828274178 83.55741782278169 l -24.688264353236384 -31.075509728737543 a60.688760394803765,60.688760394803765 0 0,0 0.823539094297575,-0.6427853258599142 l 24.149692703779383 31.49587344382068" fill="#39ff2e" stroke="none" /><path d="M 87.51073957382395 83.11751280151077 l -9.002095588463787 -12.168675994079562 a36.136525375155536,36.136525375155536 0 0,0 0.5032521950792691,-0.36563412203714035 l 8.791298077030737 12.32182935093337" fill="#ff970d" stroke="none" /><path d="M 88.09926311788651 82.69761687909137 l -14.06284714590065 -20.44585738676859 a45.8152524494321,45.8152524494321 0 0,0 0.6536206932585309,-0.4413276097880716 l 13.70882175823558 20.68489690885533" fill="#e5ff1a" stroke="none" /><path d="M 88.39885842347998 82.49532879139004 l -8.14733132547918 -12.293303649424287 a35.74802774421322,35.74802774421322 0 0,0 0.5158491033178453,-0.3355226060742484 l 7.934515196377049 12.43172517965807" fill="#ff920d" stroke="none" /><path d="M 88.70189139769569 82.29822771554957 l -28.496782683918827 -44.64849610379183 a73.96748840246072,73.96748840246072 0 0,0 1.0791534187448693,-0.6757657718163153 l 27.724010112801714 45.132406216931074" fill="#40ffc4" stroke="none" /><path d="M 89.00827224532344 82.1063720568725 l -9.07899146815681 -14.779850725552043 a38.34566440204772,38.34566440204772 0 0,0 0.5653939188076904,-0.3406435098459014 l 8.823235483131471 14.933940844856563" fill="#ffb610" stroke="none" /><line stroke="#e1ed5e" stroke-width="0.3" x1="56.762969772571076" x2="54.21961505331055" y1="26.818313649435495" y2="22.513508569990535" /><path d="M 56.25429882871897 25.957352633546506 a86.0,86.0 0 0,1 42.265352541879196,-11.944610805530505" fill="none" id="id108" stroke="none" /><text fill="#e1ed5e" style="font-size:6.75px; font-family:Arial;" text-anchor="middle"><textPath startOffset="22.20632615414155" xlink:href="#id108">December</textPath></text><path d="M 89.63071344664047 81.73862282372117 l -8.193052101962534 -14.428805095599174 a37.592664621219264,37.592664621219264 0 0,0 0.5654579610207962,-0.3146767430997306 l 7.943470051869693 14.56769723625909" fill="#ffab0f" stroke="none" /><path d="M 90.26544431104013 81.39251694778311 l -9.557226411019569 -18.268520326092855 a41.61745405175813,41.61745405175813 0 0,0 0.6376180654480805,-0.32661273834252885 l 9.241347857982724 18.43032558974789" fill="#ffe215" stroke="none" /><path d="M 90.58718382345135 81.22770947309562 l -7.784043407260523 -15.523975139256157 a38.36620672139887,38.36620672139887 0 0,0 0.592901736043412,-0.29093430693253264 l 7.515670404206684 15.65566460632352" fill="#ffb610" stroke="none" /><path d="M 90.91171255644093 81.06846463323043 l -27.264862330677197 -56.79460610030868 a84.0,84.0 0 0,0 1.3088871548015661,-0.6145400694399696 l 26.28319696457602 57.25551115238866" fill="#4dd2ff" stroke="none" /><path d="M 91.23893434514133 80.91482961587045 l -5.312924786644901 -11.57371474952367 a33.73491432605212,33.73491432605212 0 0,0 0.529827522701113,-0.2377181653344003 l 5.112915145477014 11.6634532453746" fill="#ff750a" stroke="none" /><path d="M 91.90106846888425 80.62456947434976 l -4.791705326934124 -11.463407648861788 a33.424578659421485,33.424578659421485 0 0,0 0.5327497918819217,-0.21732201665927306 l 4.593671665463821 11.544190551704638" fill="#ff700a" stroke="none" /></svg>