<?xml version="1.0" encoding="utf-8" ?>
<svg baseProfile="full" height="200mm" version="1.1" viewBox="0,0,200,200" width="200mm" xmlns="http://www.w3.org/2000/svg" xmlns:ev="http://www.w3.org/2001/xml-events" xmlns:xlink="http://www.w3.org/1999/xlink"><defs /><rect fill="#1a1a1a" height="200" width="200" x="0" y="0" /><text alignment-baseline="middle" fill="#e1ed5e" style="dominant-baseline: central; font-size:9.0px; font-family:Arial;" text-anchor="middle" x="100.0" y="100.0">2026</text><line stroke="#e1ed5e" stroke-width="0.3" x1="100.0" x2="100.0" y1="15.0" y2="10.0" /><path d="M 100.0 14.0 a86.0,86.0 0 0,1 42.46469731375804,11.215312516191453" fill="none" id="id109" stroke="none" /><text fill="#e1ed5e" style="font-size:6.75px; font-family:Arial;" text-anchor="middle"><textPath startOffset="22.20632615414155" xlink:href="#id109">January</textPath></text><path d="M 100.0 79.0 l 0.0 -20.747588053236882 a41.74758805323688,41.74758805323688 0 0,0 0.7186161018074356,0.006185355663456806 l -0.3571356225349072 20.744514074181986" fill="#ffba11" stroke="none" /><path d="M 100.72285384407766 79.0124445844662 l 1.2239604853608304 -35.536836005501364 a56.557907595239946,56.557907595239946 0 0,0 0.9726860394713316,0.04188590695907112 l -1.8354873572214936 35.510502372018095" fill="#7cff26" stroke="none" /><path d="M 101.44485096284872 79.0497635885617 l 2.076964700444333 -30.115840741614896 a51.187375605395104,51.187375605395104 0 0,0 0.8784967785228175,0.06818825770578643 l -2.5950516683294915 30.075627221720644" fill="#c1ff1e" stroke="none" /><path d="M 103.95276090670814 79.375362276772 l 1.686684100391009 -8.800746957666162 a29.960917936650354,29.960917936650354 0 0,0 0.5056740819022758,0.10143346369482145 l -1.83792459176041 8.770409537894132" fill="#ff0000" stroke="none" /><path d="M 104.307194497241 79.44645832069477 l 3.0457788234968466 -14.534180435730825 a35.84988786422451,35.84988786422451 0 0,0 0.6028880351205251,0.13176797323308537 l -3.2955095827708996 14.479598964401868" fill="#ff6008" stroke="none" /><path d="M 106.0581310904928 79.89281104454417 l 18.118847691821074 -60.137208778183776 a83.80745593725536,83.80745593725536 0 0,0 1.3776933174020243,0.4280560199842433 l -19.151326381933817 59.81641262331701" fill="#4dd4ff" stroke="none" /><path d="M 108.43124777332544 80.76684994638697 l 7.150084794096843 -16.310593335425324 a38.808963123000616,38.808963123000616 0 0,0 0.6095185715109006,0.2734732159970361 l -7.429785484074523 16.185099788911756" fill="#ff8e0d" stroke="none" /><path d="M 109.73455568895987 81.39251694778311 l 9.176959811573854 -17.54164541463337 a40.79711886199529,40.79711886199529 0 0,0 0.6194458779295461,0.3308865352206831 l -9.477550736031711 17.381080152910933" fill="#ffac0f" stroke="none" /><line stroke="#e1ed5e" stroke-width="0.3" x1="143.23703022742887" x2="145.7803849466894" y1="26.81831364943548" y2="22.513508569990506" /><path d="M 143.74570117128098 25.957352633546492 a86.0,86.0 0 0,1 28.547481713284135,27.462654790039103" fill="none" id="id110" stroke="none" /><text fill="#e1ed5e" style="font-size:6.75px; font-family:Arial;" text-anchor="middle"><textPath startOffset="19.985693538727396" xlink:href="#id110">February</textPath></text><path d="M 110.68208982089419 81.91981866633111 l 9.045504246764619 -15.310146214655777 a38.78262422119906,38.78262422119906 0 0,0 0.5718367443099943,0.34452524012176866 l -9.30770305729225 15.152174365075394" fill="#ff8d0d" stroke="none" /><path d="M 114.42810811169701 84.74124197986012 l 13.231976108031313 -13.993762730197238 a40.25903910044758,40.25903910044758 0 0,0 0.499435918177592,0.4804569575842841 l -13.470895269821323 13.763922685850654" fill="#ffa40f" stroke="none" /><path d="M 115.19652480421416 85.50635884689758 l 34.25162576529951 -32.66738804749243 a68.33214668078747,68.33214668078747 0 0,0 0.8044733152094395,0.8581560423856368 l -34.80886640247941 32.07296258822874" fill="#37ff75" stroke="none" /><path d="M 117.2510076193507 88.02491185347247 l 12.197642877749184 -8.467206777942863 a35.84843703537672,35.84843703537672 0 0,0 0.34751736782940873,0.5099388558987669 l -12.341584711247327 8.25598989877369" fill="#ff6008" stroke="none" /><line stroke="#e1ed5e" stroke-width="0.3" x1="172.23445277983987" x2="176.4835382374775" y1="55.19839476539836" y2="52.563006222186495" /><path d="M 173.08426987136738 54.67131705675599 a86.0,86.0 0 0,1 12.851231095245387,41.99856678651699" fill="none" id="id111" stroke="none" /><text fill="#e1ed5e" style="font-size:6.75px; font-family:Arial;" text-anchor="middle"><textPath startOffset="22.20632615414155" xlink:href="#id111">March</textPath></text><path d="M 117.84615892207809 88.93136811851018 l 20.14240411923304 -12.49282029693107 a44.70204638156606,44.70204638156606 0 0,0 0.39994325235108247,0.6574015488675893 l -20.354463169870343 12.1442509748564" fill="#ffe515" stroke="none" /><path d="M 119.196687751892 91.48605970444005 l 10.848461121153177 -4.811410774501878 a32.86755165727813,32.86755165727813 0 0,0 0.2249225008512601,0.5191521428601512 l -10.929674331847119 4.623959487055124" fill="#ff3004" stroke="none" /><path d="M 119.61058180528143 92.48833698450437 l 16.616301232545165 -6.364729851575805 a38.79357335484422,38.79357335484422 0 0,0 0.23349188893704387,0.6256421774876707 l -16.723397709983836 6.077764537058801" fill="#ff8e0d" stroke="none" /><path d="M 119.97218684219823 93.5106431181261 l 33.82357452092932 -10.989945558851428 a56.56421089746513,56.56421089746513 0 0,0 0.29290703571800025,0.9285953472915254 l -34.00773704041553 10.406100045133483" fill="#7cff26" stroke="none" /><path d="M 120.28053869075195 94.5502522615342 l 14.633452399011446 -3.932273463417684 a36.15258076055801,36.15258076055801 0 0,0 0.15632318787684713,0.6023770111311003 l -14.698971918758597 3.6798000267377335" fill="#ff6509" stroke="none" /><path d="M 120.45610955862082 95.25157060432595 l 14.539889338238604 -3.3751108804774512 a35.92647833294049,35.92647833294049 0 0,0 0.1346483571453379,0.6036021831929346 l -14.59583208238598 3.1243305277345526" fill="#ff6109" stroke="none" /><path d="M 120.6074358757038 95.95851677861258 l 40.672000458467835 -7.976499765648102 a62.44678720727328,62.44678720727328 0 0,0 0.19779061167842105,1.0566053565130753 l -40.80327679405612 7.275216331672463" fill="#38ff2e" stroke="none" /><path d="M 120.73433829027371 96.67025291283417 l 14.67134957758139 -2.3560859689290994 a35.859328367075754,35.859328367075754 0 0,0 0.09262653472089494,0.6102931327341268 l -14.709732005741586 2.1031937238028906" fill="#ff6008" stroke="none" /><path d="M 120.91429891909075 98.10471618934814 l 8.91396635779717 -0.8077964359210192 a29.950493355666293,29.950493355666293 0 0,0 0.04210970362794477,0.5138450442289408 l -8.92655054524461 0.6542374744843097" fill="#ff0000" stroke="none" /><path d="M 120.94382443527127 98.46500227214037 l 62.831473305813795 -4.6049931835789 a84.0,84.0 0 0,0 0.09327763598233796,1.442963742987859 l -62.90143153280055 3.5227703763380056" fill="#4dd2ff" stroke="none" /><line stroke="#e1ed5e" stroke-width="0.3" x1="184.98032266829074" x2="189.97916517819016" y1="98.17113171792111" y2="98.06355123074" /><path d="M 185.9800911702706 98.14961562048488 a86.0,86.0 0 0,1 -9.607161424134198,41.387399972396054" fill="none" id="id112" stroke="none" /><text fill="#e1ed5e" style="font-size:6.75px; font-family:Arial;" text-anchor="middle"><textPath startOffset="21.466115282336823" xlink:href="#id112">April</textPath></text><path d="M 120.99980553446 99.90962569577887 l 9.103569037661222 -0.03917792078396082 a30.103653339892784,30.103653339892784 0 0,0 -0.0022301111950825177,0.5181993025625349 l -9.102894629176637 -0.11753085998225875" fill="#ff0300" stroke="none" /><path d="M 120.9904718944345 100.63252640178507 l 14.842026445550724 0.44724928672481257 a35.84876361637234,35.84876361637234 0 0,0 -0.023895534788123833,0.6166375754595308 l -14.832128777911397 -0.7026641091983497" fill="#ff6008" stroke="none" /><path d="M 120.89721153311464 102.0752229133903 l 14.816021871955929 1.4713230052369641 a35.88889839766583,35.88889839766583 0 0,0 -0.06633925892666544,0.6142191470297197 l -14.788500311528212 -1.7261384741514754" fill="#ff6108" stroke="none" /><line stroke="#e1ed5e" stroke-width="0.3" x1="174.80103733775053" x2="179.2010983576182" y1="140.37084112569926" y2="142.7455964860345" /><path d="M 175.68104954172406 140.8457921977663 a86.0,86.0 0 0,1 -30.038265399797805,32.042727171017184" fill="none" id="id113" stroke="none" /><text fill="#e1ed5e" style="font-size:6.75px; font-family:Arial;" text-anchor="middle"><textPath startOffset="22.206326154141568" xlink:href="#id113">May</textPath></text><line stroke="#e1ed5e" stroke-width="0.3" x1="143.8653032363475" x2="146.44561519142675" y1="172.8068346515853" y2="177.08958963109032" /><path d="M 144.38136562736335 173.6633856474863 a86.0,86.0 0 0,1 -40.68145358897372,12.25698825130547" fill="none" id="id114" stroke="none" /><text fill="#e1ed5e" style="font-size:6.75px; font-family:Arial;" text-anchor="middle"><textPath startOffset="21.466115282336833" xlink:href="#id114">June</textPath></text><line stroke="#e1ed5e" stroke-width="0.3" x1="102.19456741930631" x2="102.32365962044197" y1="184.97166512339345" y2="189.96999836594603" /><path d="M 102.22038585953345 185.97133177190398 a86.0,86.0 0 0,1 -42.740103519485714,-10.115201625700543" fill="none" id="id115" stroke="none" /><text fill="#e1ed5e" style="font-size:6.75px; font-family:Arial;" text-anchor="middle"><textPath startOffset="22.20632615414155" xlink:href="#id115">July</textPath></text><line stroke="#e1ed5e" stroke-width="0.3" x1="58.666819895761336" x2="56.23545636021788" y1="174.27360380694188" y2="178.64263932499728" /><path d="M 58.180547188652646 175.14741091055294 a86.0,86.0 0 0,1 -31.652253787137756,-30.449443065178592" fill="none" id="id116" stroke="none" /><text fill="#e1ed5e" style="font-size:6.75px; font-family:Arial;" text-anchor="middle"><textPath startOffset="22.20632615414155" xlink:href="#id116">August</textPath></text><line stroke="#e1ed5e" stroke-width="0.3" x1="26.63291911575756" x2="22.317208475507996" y1="142.92168965132927" y2="145.44649492493687" /><path d="M 25.769776987707644 143.4266507060508 a86.0,86.0 0 0,1 -11.730757126820373,-40.83630448921669" fill="none" id="id117" stroke="none" /><text fill="#e1ed5e" style="font-size:6.75px; font-family:Arial;" text-anchor="middle"><textPath startOffset="21.46611528233685" xlink:href="#id117">September</textPath></text><line stroke="#e1ed5e" stroke-width="0.3" x1="15.007084014347285" x2="10.007500721073583" y1="101.09737516637583" y2="101.16192664675087" /><path d="M 14.007167355692545 101.11028546245083 a86.0,86.0 0 0,1 10.666146001902534,-42.60595125391555" fill="none" id="id118" stroke="none" /><text fill="#e1ed5e" style="font-size:6.75px; font-family:Arial;" text-anchor="middle"><textPath startOffset="22.20632615414155" xlink:href="#id118">October</textPath></text><line stroke="#e1ed5e" stroke-width="0.3" x1="26.266209847984243" x2="21.928928074336255" y1="57.711370442889674" y2="55.22380399835377" /><path d="M 25.398753493254645 57.213857153982495 a86.0,86.0 0 0,1 29.58750427330803,-30.492523968695096" fill="none" id="id119" stroke="none" /><text fill="#e1ed5e" style="font-size:6.75px; font-family:Arial;" text-anchor="middle"><textPath startOffset="21.46611528233685" xlink:href="#id119">November</textPath></text><line stroke="#e1ed5e" stroke-width="0.3" x1="56.762969772571076" x2="54.21961505331055" y1="26.818313649435495" y2="22.513508569990535" /><path d="M 56.25429882871897 25.957352633546506 a86.0,86.0 0 0,1 42.265352541879196,-11.944610805530505" fill="none" id="id120" stroke="none" /><text fill="#e1ed5e" style="font-size:6.75px; font-family:Arial;" text-anchor="middle"><textPath startOffset="22.20632615414155" xlink:href="#id120">December</textPath></text></svg>